<?xml version="1.0" encoding="UTF-8"?>
<svg version="1.1" xmlns="http://www.w3.org/2000/svg" width="500" height="500">
<path d="M0 0 C165 0 330 0 500 0 C500 165 500 330 500 500 C335 500 170 500 0 500 C0 335 0 170 0 0 Z " fill="#FEFEFE" transform="translate(0,0)"/>
<path d="M0 0 C5.82515116 3.19759827 10.910574 7.5515522 15.4296875 12.40234375 C17.5537951 14.85925355 17.5537951 14.85925355 21.5546875 14.40234375 C23.74170474 12.3654052 23.74170474 12.3654052 25.8046875 9.71484375 C31.51643155 3.08396848 37.81608385 -1.82241866 46.76171875 -2.8515625 C55.44322035 -3.27538384 63.22744724 -0.87875527 69.9296875 4.71484375 C74.93270481 9.49185206 79.2652437 14.48773498 79.79296875 21.625 C79.94746432 29.61811288 79.76836039 36.3795556 75.5546875 43.40234375 C74.74451172 44.80419922 74.74451172 44.80419922 73.91796875 46.234375 C71.29006576 49.92583009 69.02570193 52.91424213 64.37939453 53.83203125 C59.06872381 54.26161028 53.84786115 53.9162441 48.5546875 53.40234375 C47.5646875 51.42234375 46.5746875 49.44234375 45.5546875 47.40234375 C44.5646875 47.40234375 43.5746875 47.40234375 42.5546875 47.40234375 C42.00039062 48.52253906 41.44609375 49.64273438 40.875 50.796875 C40.14333559 52.26958413 39.41155889 53.74223747 38.6796875 55.21484375 C38.13248047 56.32182617 38.13248047 56.32182617 37.57421875 57.45117188 C37.21972656 58.16337891 36.86523438 58.87558594 36.5 59.609375 C36.17531738 60.26397705 35.85063477 60.9185791 35.51611328 61.59301758 C34.5546875 63.40234375 34.5546875 63.40234375 32.5546875 66.40234375 C31.0696875 65.90734375 31.0696875 65.90734375 29.5546875 65.40234375 C28.5546875 63.40234375 27.5546875 61.40234375 26.5546875 59.40234375 C25.0696875 58.90734375 25.0696875 58.90734375 23.5546875 58.40234375 C23.2453125 59.35109375 22.9359375 60.29984375 22.6171875 61.27734375 C21.5546875 64.40234375 21.5546875 64.40234375 20.5546875 66.40234375 C19.5646875 66.40234375 18.5746875 66.40234375 17.5546875 66.40234375 C13.0996875 56.99734375 13.0996875 56.99734375 8.5546875 47.40234375 C7.5646875 47.40234375 6.5746875 47.40234375 5.5546875 47.40234375 C4.99265625 48.38460937 4.430625 49.366875 3.8515625 50.37890625 C1.5546875 53.40234375 1.5546875 53.40234375 -2.1171875 53.98828125 C-3.4778027 53.94865168 -4.83780447 53.87742468 -6.1953125 53.77734375 C-6.89269531 53.75027344 -7.59007812 53.72320312 -8.30859375 53.6953125 C-10.02216955 53.62489158 -11.73414552 53.51727288 -13.4453125 53.40234375 C-13.4453125 52.08234375 -13.4453125 50.76234375 -13.4453125 49.40234375 C-12.57648438 49.45777344 -11.70765625 49.51320312 -10.8125 49.5703125 C-7.08099391 49.59118222 -4.03862909 49.44240217 -0.4453125 48.40234375 C2.46617911 45.07196969 4.06101157 41.54234965 5.5546875 37.40234375 C6.5446875 37.40234375 7.5346875 37.40234375 8.5546875 37.40234375 C9.87215083 39.98325142 11.18378367 42.56684833 12.4921875 45.15234375 C12.86537109 45.88195312 13.23855469 46.6115625 13.62304688 47.36328125 C13.98076172 48.07226562 14.33847656 48.78125 14.70703125 49.51171875 C15.03695068 50.16108398 15.36687012 50.81044922 15.70678711 51.47949219 C16.56920866 53.43527454 17.09842929 55.31775069 17.5546875 57.40234375 C18.5446875 57.40234375 19.5346875 57.40234375 20.5546875 57.40234375 C20.8640625 56.45359375 21.1734375 55.50484375 21.4921875 54.52734375 C22.5546875 51.40234375 22.5546875 51.40234375 23.5546875 49.40234375 C25.4296875 49.65234375 25.4296875 49.65234375 27.5546875 50.40234375 C29.27570285 52.98386677 29.5546875 54.251524 29.5546875 57.40234375 C30.8746875 57.40234375 32.1946875 57.40234375 33.5546875 57.40234375 C34.1115625 55.51515625 34.1115625 55.51515625 34.6796875 53.58984375 C36.58660172 47.80461608 39.51782338 42.66034473 42.5546875 37.40234375 C43.5446875 37.40234375 44.5346875 37.40234375 45.5546875 37.40234375 C46.39287908 39.02484316 47.2250991 40.65042872 48.0546875 42.27734375 C48.75078125 43.63472656 48.75078125 43.63472656 49.4609375 45.01953125 C50.5546875 47.40234375 50.5546875 47.40234375 50.5546875 49.40234375 C52.80525472 49.28801012 55.05515424 49.16047939 57.3046875 49.02734375 C59.18414062 48.92292969 59.18414062 48.92292969 61.1015625 48.81640625 C64.21321988 48.44328896 66.04573581 48.21957512 68.5546875 46.40234375 C69.72653657 44.52752316 69.72653657 44.52752316 70.5546875 42.40234375 C70.90789062 41.78617188 71.26109375 41.17 71.625 40.53515625 C75.52298187 33.11455372 76.17577705 24.76440918 73.7421875 16.71484375 C70.31177078 9.6634316 64.41876374 6.10253729 57.4296875 3.02734375 C49.87986797 1.38607864 43.16264684 2.67536781 36.5546875 6.5859375 C31.36512469 10.27931587 27.13758434 14.83474801 22.8515625 19.5234375 C20.5546875 21.40234375 20.5546875 21.40234375 18.6171875 21.546875 C15.47664072 19.80410946 13.22874289 17.250811 10.8046875 14.65234375 C4.09253411 7.69739726 -2.10472418 2.34515754 -12.1953125 2.15234375 C-19.02119323 2.24268629 -24.93681955 4.05237903 -30.05859375 8.78125 C-35.53923352 15.18819508 -37.00264553 21.6513869 -37.109375 29.93359375 C-34.88715062 41.54144814 -26.80281946 48.6804825 -18.69921875 56.56640625 C-17.44153985 57.80964494 -16.18512737 59.05416592 -14.92991638 60.29989624 C-11.64014236 63.55942906 -8.33649831 66.80450042 -5.02868652 70.04571533 C0.26378137 75.2354029 5.53673782 80.44484456 10.80574226 85.65833664 C12.63621574 87.46485845 14.47385466 89.26383047 16.31260681 91.06192017 C30.86040692 105.35463003 30.86040692 105.35463003 32.31640625 111.74609375 C32.14743143 118.93197019 31.52435576 124.01751893 26.5546875 129.40234375 C26.01972656 130.00175781 25.48476562 130.60117187 24.93359375 131.21875 C20.83681917 135.01597547 17.22317144 135.88750847 11.6796875 136.15234375 C4.67542437 135.81524018 -0.17689273 134.03817548 -5.4453125 129.40234375 C-7.41291939 127.16853122 -9.1849139 124.87841159 -10.92578125 122.46484375 C-12.83272764 119.87649493 -14.65506328 118.01775119 -17.4453125 116.40234375 C-19.84675517 116.59812295 -19.84675517 116.59812295 -22.4453125 117.40234375 C-28.71500165 118.01526652 -32.11733501 116.99077069 -37.1328125 113.08984375 C-40.26536463 109.06227672 -40.9626665 104.36894213 -40.4453125 99.40234375 C-38.68939322 94.62234126 -36.10289256 90.68737781 -31.4453125 88.40234375 C-26.35187302 87.44991198 -22.60034091 87.79332877 -18.0078125 90.21484375 C-16.739375 91.29765625 -16.739375 91.29765625 -15.4453125 92.40234375 C-14.8471875 92.89734375 -14.2490625 93.39234375 -13.6328125 93.90234375 C-10.76579155 97.52384389 -11.15035118 101.97792388 -11.4453125 106.40234375 C-12.27933998 109.17112102 -13.32009814 111.72995965 -14.4453125 114.40234375 C-13.8884375 114.62921875 -13.3315625 114.85609375 -12.7578125 115.08984375 C-9.77326501 116.78377611 -7.81877205 118.91849073 -5.4453125 121.40234375 C1.25609658 128.84144386 1.25609658 128.84144386 10.4921875 131.65234375 C13.90322705 131.52289253 17.20493352 131.07229455 20.5546875 130.40234375 C20.8846875 129.41234375 21.2146875 128.42234375 21.5546875 127.40234375 C22.2146875 127.40234375 22.8746875 127.40234375 23.5546875 127.40234375 C24.01875 126.19578125 24.01875 126.19578125 24.4921875 124.96484375 C25.5546875 122.40234375 25.5546875 122.40234375 26.5546875 121.40234375 C27.14229521 115.40196502 27.02318339 110.4966971 23.5546875 105.40234375 C18.67912009 99.49256507 13.50775175 93.80170845 7.5546875 88.96484375 C4.47564869 86.33483143 2.10390349 83.53984035 -0.4453125 80.40234375 C-3.00143886 77.71513399 -5.5652936 75.30485911 -8.4453125 72.96484375 C-11.52435131 70.33483143 -13.89609651 67.53984035 -16.4453125 64.40234375 C-19.00143886 61.71513399 -21.5652936 59.30485911 -24.4453125 56.96484375 C-27.58032477 54.28702077 -29.85951415 51.60056802 -32.4453125 48.40234375 C-33.46625 47.47421875 -33.46625 47.47421875 -34.5078125 46.52734375 C-40.64516658 39.79605218 -41.86698557 31.87016404 -41.78515625 23.05078125 C-41.06125134 15.27920443 -37.12763482 9.13350785 -31.48046875 3.87109375 C-27.81070289 1.22266388 -23.72038855 -0.20750914 -19.4453125 -1.59765625 C-12.65042283 -3.86261947 -6.47400911 -2.8336395 0 0 Z " fill="#BE4046" transform="translate(139.4453125,184.59765625)"/>
<path d="M0 0 C3.73487777 0.4979837 5.81237635 0.87491756 9 3 C14.4522889 3.70620123 18.84562554 2.75468067 24 1 C27.90397503 0.46729386 31.02462783 0.4147767 34.5 2.5 C36.63467585 6.05779309 36.66609229 9.02404706 36 13 C33.27394674 22.72668709 27.60281936 32.3187345 20 39 C21.56641751 34.69235185 23.68336156 30.93828536 26 27 C17.69456849 28.91639688 17.69456849 28.91639688 12 35 C11.01 35.66 10.02 36.32 9 37 C8.71125 37.721875 8.4225 38.44375 8.125 39.1875 C6.62155564 42.9461109 4.417287 45.7557464 2 49 C-3.63348628 44.49321097 -5.60686905 38.66129234 -8 32 C-8.32355469 31.12085938 -8.64710938 30.24171875 -8.98046875 29.3359375 C-10.7755751 23.75678068 -11.3237961 18.385717 -11.4375 12.5625 C-11.45981689 11.87575195 -11.48213379 11.18900391 -11.50512695 10.48144531 C-11.48979411 7.12479612 -11.20446147 5.28018794 -9.20703125 2.54296875 C-6.1102871 0.37798833 -3.68256007 0.71672615 0 1 C0 0.67 0 0.34 0 0 Z " fill="#F8F8F8" transform="translate(190,251)"/>
<path d="M0 0 C3.4375 1.8125 3.4375 1.8125 6 4 C6.8971875 4.7425 6.8971875 4.7425 7.8125 5.5 C10.67952095 9.12150014 10.29496132 13.57558013 10 18 C9.16597252 20.76877727 8.12521436 23.3276159 7 26 C7.556875 26.226875 8.11375 26.45375 8.6875 26.6875 C11.67204749 28.38143236 13.62654045 30.51614698 16 33 C22.70140908 40.43910011 22.70140908 40.43910011 31.9375 43.25 C35.34853955 43.12054878 38.65024602 42.6699508 42 42 C42.33 41.01 42.66 40.02 43 39 C43.66 39 44.32 39 45 39 C45.33 38.01 45.66 37.02 46 36 C46.33 36.66 46.66 37.32 47 38 C46.505 38.99 46.505 38.99 46 40 C45.34 40 44.68 40 44 40 C44.495 41.98 44.495 41.98 45 44 C39.01765339 48.20896806 33.06587245 47.92566015 26 47 C18.96966908 44.49188194 14.79910639 39.99577513 10.51953125 34.0625 C8.61258486 31.47415118 6.79024922 29.61540744 4 28 C1.59855733 28.1957792 1.59855733 28.1957792 -1 29 C-7.26968915 29.61292277 -10.67202251 28.58842694 -15.6875 24.6875 C-18.82005213 20.65993297 -19.517354 15.96659838 -19 11 C-15.56236732 1.64199993 -9.5874514 -1.71482871 0 0 Z " fill="#BE4047" transform="translate(118,273)"/>
<path d="M0 0 C2.31 0 4.62 0 7 0 C7 4.95 7 9.9 7 15 C12.28 15 17.56 15 23 15 C23 10.05 23 5.1 23 0 C25.31 0 27.62 0 30 0 C30 11.88 30 23.76 30 36 C27.69 36 25.38 36 23 36 C23 31.05 23 26.1 23 21 C17.72 21 12.44 21 7 21 C7 25.95 7 30.9 7 36 C4.69 36 2.38 36 0 36 C0 24.12 0 12.24 0 0 Z " fill="#09499F" transform="translate(240,196)"/>
<path d="M0 0 C2.625 1.625 2.625 1.625 4.625 3.625 C4.85205078 5.87158203 4.85205078 5.87158203 4.8203125 8.6328125 C4.81386719 9.61894531 4.80742187 10.60507812 4.80078125 11.62109375 C4.78402344 12.65363281 4.76726562 13.68617188 4.75 14.75 C4.74097656 15.79027344 4.73195313 16.83054687 4.72265625 17.90234375 C4.69903747 20.47679092 4.66610149 23.05078212 4.625 25.625 C2.315 25.625 0.005 25.625 -2.375 25.625 C-2.705 24.635 -3.035 23.645 -3.375 22.625 C-3.705 23.12 -4.035 23.615 -4.375 24.125 C-6.98713403 26.08410053 -9.22631373 26.11250858 -12.43359375 25.96484375 C-14.375 25.625 -14.375 25.625 -16.875 24.125 C-19.14735685 20.33773859 -18.93223448 18.01322151 -18.375 13.625 C-15.44114844 10.69114844 -12.65267655 10.06083089 -8.625 9.4375 C-7.64015625 9.27894531 -6.6553125 9.12039063 -5.640625 8.95703125 C-4.89296875 8.84746094 -4.1453125 8.73789062 -3.375 8.625 C-3.375 7.635 -3.375 6.645 -3.375 5.625 C-5.70794775 5.58258277 -8.04202567 5.58407063 -10.375 5.625 C-10.705 5.955 -11.035 6.285 -11.375 6.625 C-13.37458364 6.66580783 -15.37545254 6.66754356 -17.375 6.625 C-17.11093684 3.36822102 -16.80753722 2.00510847 -14.3125 -0.1875 C-9.1219766 -2.2857967 -5.05442288 -2.05920932 0 0 Z " fill="#024AAD" transform="translate(286.375,256.375)"/>
<path d="M0 0 C2.31 0 4.62 0 7 0 C7.33 3.96 7.66 7.92 8 12 C8.99 11.67 9.98 11.34 11 11 C11 10.34 11 9.68 11 9 C12.41782145 9.06059066 13.83444466 9.14954123 15.25 9.25 C16.03890625 9.29640625 16.8278125 9.3428125 17.640625 9.390625 C21.04253585 10.26926423 22.06545951 11.01025561 24 14 C24.490366 17.76152225 24.3748834 21.4650722 24.25 25.25 C24.23195313 26.28125 24.21390625 27.3125 24.1953125 28.375 C24.14822712 30.91761064 24.0824805 33.45833162 24 36 C21.69 36 19.38 36 17 36 C16.505 26.595 16.505 26.595 16 17 C13.69 16.34 11.38 15.68 9 15 C8.11360611 17.65918166 7.82010975 19.48064641 7.68359375 22.23046875 C7.64169922 23.03291016 7.59980469 23.83535156 7.55664062 24.66210938 C7.51732422 25.49548828 7.47800781 26.32886719 7.4375 27.1875 C7.39431641 28.03248047 7.35113281 28.87746094 7.30664062 29.74804688 C7.20068482 31.83184433 7.0998498 33.91590103 7 36 C4.69 36 2.38 36 0 36 C0 24.12 0 12.24 0 0 Z " fill="#154D9B" transform="translate(367,196)"/>
<path d="M0 0 C3.0625 1.625 3.0625 1.625 4.0625 3.625 C4.14676094 5.2924606 4.16975143 6.96325187 4.16015625 8.6328125 C4.15693359 9.61894531 4.15371094 10.60507813 4.15039062 11.62109375 C4.14201172 12.65363281 4.13363281 13.68617188 4.125 14.75 C4.12048828 15.79027344 4.11597656 16.83054688 4.11132812 17.90234375 C4.09951952 20.47661962 4.08305075 23.05078146 4.0625 25.625 C1.7525 25.625 -0.5575 25.625 -2.9375 25.625 C-3.2675 24.965 -3.5975 24.305 -3.9375 23.625 C-4.63875 23.955 -5.34 24.285 -6.0625 24.625 C-9.319556 25.75788904 -11.51447562 26.06198184 -14.9375 25.625 C-17.3125 24.125 -17.3125 24.125 -18.9375 21.625 C-19.52178517 18.6618395 -19.33094818 16.72340439 -18.9375 13.625 C-16.00364844 10.69114844 -13.21517655 10.06083089 -9.1875 9.4375 C-8.20265625 9.27894531 -7.2178125 9.12039062 -6.203125 8.95703125 C-5.45546875 8.84746094 -4.7078125 8.73789063 -3.9375 8.625 C-3.9375 7.635 -3.9375 6.645 -3.9375 5.625 C-6.27044775 5.58258277 -8.60452567 5.58407063 -10.9375 5.625 C-11.2675 5.955 -11.5975 6.285 -11.9375 6.625 C-13.93708364 6.66580783 -15.93795254 6.66754356 -17.9375 6.625 C-17.67343684 3.36822102 -17.37003722 2.00510847 -14.875 -0.1875 C-9.68420671 -2.2859058 -5.09947502 -2.05235545 0 0 Z " fill="#0949A3" transform="translate(323.9375,206.375)"/>
<path d="M0 0 C3 1.375 3 1.375 5 3 C5 3.66 5 4.32 5 5 C5.66 5 6.32 5 7 5 C8 8 8 8 8 15 C2.06 15 -3.88 15 -10 15 C-9.01 16.65 -8.02 18.3 -7 20 C-7 20.66 -7 21.32 -7 22 C-3.04 21.505 -3.04 21.505 1 21 C1 20.34 1 19.68 1 19 C3.31 19 5.62 19 8 19 C7.69895795 21.80972581 6.95275592 23.05669289 5.125 25.25 C0.48001299 27.85119273 -3.7955969 27.90046857 -9 27 C-12.64679833 25.11173683 -14.73153834 22.40269249 -17 19 C-17.73176768 14.05631368 -17.52245588 10.06426199 -15.3125 5.5625 C-10.74264584 0.49860755 -6.69840744 -1.02636888 0 0 Z " fill="#094BA8" transform="translate(292,205)"/>
<path d="M0 0 C2.89427654 1.48023291 4.81379547 2.85608055 6.50390625 5.6484375 C7.06640625 8.2734375 7.06640625 8.2734375 7.06640625 14.2734375 C1.12640625 14.2734375 -4.81359375 14.2734375 -10.93359375 14.2734375 C-8.81018224 20.19102335 -8.81018224 20.19102335 -5.890625 21.078125 C-3.90494792 21.14322917 -1.91927083 21.20833333 0.06640625 21.2734375 C0.06640625 20.2834375 0.06640625 19.2934375 0.06640625 18.2734375 C2.37640625 18.2734375 4.68640625 18.2734375 7.06640625 18.2734375 C5.78612869 22.22095997 4.63859729 24.13259071 1.06640625 26.2734375 C-3.75151022 27.00581825 -8.3930163 26.88324941 -12.93359375 25.0859375 C-16.02589947 22.28353544 -17.67368348 20.16888071 -18.25390625 15.9375 C-18.51139643 10.22121798 -17.90183913 6.67068239 -13.93359375 2.2734375 C-9.64443804 -1.20425632 -5.26227882 -1.97734113 0 0 Z " fill="#024AAF" transform="translate(334.93359375,255.7265625)"/>
<path d="M0 0 C3.55441088 2.71807891 4.43286041 4.24144926 5.125 8.625 C2.485 8.625 -0.155 8.625 -2.875 8.625 C-3.205 7.635 -3.535 6.645 -3.875 5.625 C-6.79152174 5.45818891 -6.79152174 5.45818891 -9.875 5.625 C-12.29526227 7.61327671 -12.29526227 7.61327671 -12.1875 11.5 C-12.11588781 15.08060962 -11.47708598 17.02291402 -8.875 19.625 C-6.43782742 19.35465366 -6.43782742 19.35465366 -3.875 18.625 C-3.215 17.635 -2.555 16.645 -1.875 15.625 C1.75 15.4375 1.75 15.4375 5.125 15.625 C4.7310356 19.03935813 3.22114253 21.8251315 0.98046875 24.4140625 C-3.1208313 27.09070042 -8.23244091 26.38375619 -12.875 25.625 C-16.6153349 23.53041246 -18.25476873 21.51776344 -19.875 17.625 C-20.44858744 13.04374965 -20.45694407 8.92744625 -18.5625 4.6875 C-13.60254057 -1.37467264 -7.42056799 -3.5489673 0 0 Z " fill="#134EA0" transform="translate(258.875,256.375)"/>
<path d="M0 0 C3.58552881 1.63687185 4.79315055 2.68972583 7 6 C7.56908307 10.95915249 7.50108891 13.06463403 5.125 17.5 C2.63769887 20.10100633 0.54657066 20.46619833 -3 20.625 C-6.2325301 20.39857837 -8.08699405 19.95916606 -11.0625 18.5625 C-13.83323952 14.89797354 -14.29213596 11.54433713 -14 7 C-11.20417836 0.42981914 -6.79589878 -0.87603383 0 0 Z " fill="#FDF7F7" transform="translate(117,277)"/>
<path d="M0 0 C2.64 0 5.28 0 8 0 C8 2.31 8 4.62 8 7 C9.65 7 11.3 7 13 7 C13 8.98 13 10.96 13 13 C11.35 13 9.7 13 8 13 C8 17.95 8 22.9 8 28 C9.65 28 11.3 28 13 28 C13 29.98 13 31.96 13 34 C5.84676449 34.6062064 5.84676449 34.6062064 2.25 32.03125 C-0.77847427 27.95122216 -0.5809586 25.11474787 -0.3125 20.1875 C-0.28994141 19.39923828 -0.26738281 18.61097656 -0.24414062 17.79882812 C-0.18554161 15.86506071 -0.09586827 13.93227833 0 12 C-0.99 12 -1.98 12 -3 12 C-3 10.35 -3 8.7 -3 7 C-2.01 7 -1.02 7 0 7 C0 4.69 0 2.38 0 0 Z " fill="#265EAB" transform="translate(349,198)"/>
<path d="M0 0 C2.64 0 5.28 0 8 0 C8 11.88 8 23.76 8 36 C5.36 36 2.72 36 0 36 C0 24.12 0 12.24 0 0 Z " fill="#1A58AB" transform="translate(334,196)"/>
<path d="M0 0 C3.0358355 0.86969665 4.98330947 2.41690322 7.1953125 4.62890625 C6.29039062 4.57669922 6.29039062 4.57669922 5.3671875 4.5234375 C0.36136898 4.31240456 0.36136898 4.31240456 -4.3046875 5.87890625 C-7.36462173 9.44882952 -7.13111117 14.12699507 -7.09765625 18.63671875 C-6.32460823 26.53211587 -3.32134513 34.14695113 -0.8046875 41.62890625 C2.98579298 40.36541276 3.35267067 38.66467409 5.1484375 35.2734375 C6.48419083 33.17510858 7.93391294 32.56465779 10.1953125 31.62890625 C10.5253125 30.63890625 10.8553125 29.64890625 11.1953125 28.62890625 C14.1953125 26.62890625 14.1953125 26.62890625 16.3828125 27.00390625 C17.28 27.31328125 17.28 27.31328125 18.1953125 27.62890625 C17.4528125 28.20640625 16.7103125 28.78390625 15.9453125 29.37890625 C11.58779333 32.9441492 9.25777724 35.41208366 7.1953125 40.62890625 C5.61533526 43.03649061 3.91731202 45.31780163 2.1953125 47.62890625 C-3.43817378 43.12211722 -5.41155655 37.29019859 -7.8046875 30.62890625 C-8.12824219 29.74976563 -8.45179688 28.870625 -8.78515625 27.96484375 C-10.5802626 22.38568693 -11.1284836 17.01462325 -11.2421875 11.19140625 C-11.26450439 10.5046582 -11.28682129 9.81791016 -11.30981445 9.11035156 C-11.2945968 5.77891865 -10.99585753 3.89901926 -9.0546875 1.15625 C-5.76209397 -1.07882651 -3.78843505 -0.59389658 0 0 Z " fill="#2D2D2D" transform="translate(189.8046875,252.37109375)"/>
<path d="M0 0 C2.31 0 4.62 0 7 0 C7.33 0.99 7.66 1.98 8 3 C8.391875 2.505 8.78375 2.01 9.1875 1.5 C11.55091715 -0.45593143 13.01435003 -0.24207973 16 0 C17.04449911 3.13349732 16.93423645 3.98968256 16 7 C13.69 7 11.38 7 9 7 C8.13580777 9.59257669 7.82419068 11.34037707 7.68359375 14.01171875 C7.64169922 14.76904297 7.59980469 15.52636719 7.55664062 16.30664062 C7.51732422 17.09232422 7.47800781 17.87800781 7.4375 18.6875 C7.39431641 19.48478516 7.35113281 20.28207031 7.30664062 21.10351562 C7.20072632 23.06881447 7.09987449 25.03438496 7 27 C4.69 27 2.38 27 0 27 C0 18.09 0 9.18 0 0 Z " fill="#18509B" transform="translate(297,255)"/>
<path d="M0 0 C0.99 0.33 1.98 0.66 3 1 C3 2.32 3 3.64 3 5 C4.32 4.34 5.64 3.68 7 3 C7 2.67 7 2.34 7 2 C11.873261 0.4087311 15.80790596 -0.21192221 21 0 C21.495 1.98 21.495 1.98 22 4 C20.989375 4.28875 19.97875 4.5775 18.9375 4.875 C18.30457031 5.05675781 17.67164063 5.23851562 17.01953125 5.42578125 C15.68553704 5.80507941 14.34959911 6.17761439 13.01171875 6.54296875 C9.73606174 7.24911745 9.73606174 7.24911745 7 9 C6.62947661 14.17735677 6.62947661 14.17735677 8 19 C7.01 19 6.02 19 5 19 C4.505 16.525 4.505 16.525 4 14 C2.35 15.98 0.7 17.96 -1 20 C-1.66 19.67 -2.32 19.34 -3 19 C-2.525625 18.566875 -2.05125 18.13375 -1.5625 17.6875 C0.23686957 15.97690387 0.23686957 15.97690387 1 13 C-1.31 13 -3.62 13 -6 13 C-6 13.66 -6 14.32 -6 15 C-8.82883747 16.41441874 -10.87376745 16.31900332 -14 16 C-15.875 14.1875 -15.875 14.1875 -17 12 C-17 11.01 -17 10.02 -17 9 C-11.06 9 -5.12 9 1 9 C0.67 6.03 0.34 3.06 0 0 Z " fill="#D0E3F3" transform="translate(299,211)"/>
<path d="M0 0 C2.625 1.625 2.625 1.625 4.625 3.625 C4.85205078 5.87158203 4.85205078 5.87158203 4.8203125 8.6328125 C4.81386719 9.61894531 4.80742187 10.60507812 4.80078125 11.62109375 C4.78402344 12.65363281 4.76726562 13.68617188 4.75 14.75 C4.74097656 15.79027344 4.73195313 16.83054687 4.72265625 17.90234375 C4.69903747 20.47679092 4.66610149 23.05078212 4.625 25.625 C2.315 25.625 0.005 25.625 -2.375 25.625 C-2.705 24.305 -3.035 22.985 -3.375 21.625 C-6.015 21.295 -8.655 20.965 -11.375 20.625 C-11.705 18.975 -12.035 17.325 -12.375 15.625 C-8.75526598 14.30873308 -6.27932869 13.625 -2.375 13.625 C-1.29974806 16.27728812 -0.28043849 18.90868454 0.625 21.625 C-0.035 21.625 -0.695 21.625 -1.375 21.625 C-1.045 22.285 -0.715 22.945 -0.375 23.625 C0.945 23.955 2.265 24.285 3.625 24.625 C3.625 18.025 3.625 11.425 3.625 4.625 C2.305 4.955 0.985 5.285 -0.375 5.625 C-0.375 4.965 -0.375 4.305 -0.375 3.625 C-1.035 3.625 -1.695 3.625 -2.375 3.625 C-2.705 4.285 -3.035 4.945 -3.375 5.625 C-4.509375 5.604375 -5.64375 5.58375 -6.8125 5.5625 C-10.19075674 5.20922523 -10.19075674 5.20922523 -11.375 6.625 C-13.37458364 6.66580783 -15.37545254 6.66754356 -17.375 6.625 C-17.11093684 3.36822102 -16.80753722 2.00510847 -14.3125 -0.1875 C-9.1219766 -2.2857967 -5.05442288 -2.05920932 0 0 Z " fill="#1D55A1" transform="translate(286.375,256.375)"/>
<path d="M0 0 C3.73487777 0.4979837 5.81237635 0.87491756 9 3 C14.4522889 3.70620123 18.84562554 2.75468067 24 1 C27.90397503 0.46729386 31.02462783 0.4147767 34.5 2.5 C36.63467585 6.05779309 36.66609229 9.02404706 36 13 C33.27394674 22.72668709 27.60281936 32.3187345 20 39 C21.06069573 36.08308675 22.24830801 33.59443024 23.875 30.9375 C28.42346279 23.08883677 30.6017677 15.02651543 30 6 C28.56359829 5.80426392 27.12580496 5.61872184 25.6875 5.4375 C24.88699219 5.33308594 24.08648437 5.22867187 23.26171875 5.12109375 C20.83182884 4.85244822 20.83182884 4.85244822 18 6 C10.76465595 6.76161516 6.22972925 4.57443481 0 1 C0 0.67 0 0.34 0 0 Z " fill="#161515" transform="translate(190,251)"/>
<path d="M0 0 C3 1.375 3 1.375 5 3 C5 3.66 5 4.32 5 5 C5.66 5 6.32 5 7 5 C6.67 6.98 6.34 8.96 6 11 C0.66666667 11 -4.66666667 11 -10 11 C-10.66 9.68 -11.32 8.36 -12 7 C-13.98 7.99 -13.98 7.99 -16 9 C-15.04872818 5.57542144 -14.07456145 4.06568509 -11.375 1.6875 C-7.00156179 -0.4992191 -4.85100433 -0.53900048 0 0 Z " fill="#1653A8" transform="translate(292,205)"/>
<path d="M0 0 C1.65 0 3.3 0 5 0 C5.36181089 2.29047223 5.71423224 4.58242945 6.0625 6.875 C6.25972656 8.15117187 6.45695312 9.42734375 6.66015625 10.7421875 C7 14 7 14 6 16 C5.84995027 17.3734635 5.75161994 18.7528526 5.68359375 20.1328125 C5.64169922 20.93847656 5.59980469 21.74414062 5.55664062 22.57421875 C5.49766602 23.83685547 5.49766602 23.83685547 5.4375 25.125 C5.37272461 26.39923828 5.37272461 26.39923828 5.30664062 27.69921875 C5.20045764 29.79928223 5.09971503 31.89961948 5 34 C3.35 34 1.7 34 0 34 C0 22.78 0 11.56 0 0 Z " fill="#0549A7" transform="translate(368,197)"/>
<path d="M0 0 C0 0.99 0 1.98 0 3 C0.969375 2.814375 1.93875 2.62875 2.9375 2.4375 C4.4534375 2.2209375 4.4534375 2.2209375 6 2 C7 3 7 3 7.0625 6.5625 C7.041875 7.696875 7.02125 8.83125 7 10 C6.34 10 5.68 10 5 10 C5 8.68 5 7.36 5 6 C4.01 6.99 3.02 7.98 2 9 C2.66 9.33 3.32 9.66 4 10 C-0.09725269 11.04167441 -3.61495224 10.94409525 -7.8125 10.5625 C-8.97394531 10.46066406 -10.13539063 10.35882813 -11.33203125 10.25390625 C-12.21246094 10.17011719 -13.09289062 10.08632813 -14 10 C-14.33 8.68 -14.66 7.36 -15 6 C-14.01 5.67 -13.02 5.34 -12 5 C-12.66 4.34 -13.32 3.68 -14 3 C-4.58997722 -1.77676538 -4.58997722 -1.77676538 0 0 Z " fill="#C3DAF5" transform="translate(340,301)"/>
<path d="M0 0 C-5.75 3 -5.75 3 -8 3 C-8 3.66 -8 4.32 -8 5 C-7.34 5 -6.68 5 -6 5 C-5.67 6.32 -5.34 7.64 -5 9 C-5.99 9 -6.98 9 -8 9 C-8 9.66 -8 10.32 -8 11 C-6.68 10.67 -5.36 10.34 -4 10 C-4 8.02 -4 6.04 -4 4 C-1.04335481 2.5216774 1.74229737 2.93967217 5 3 C6.80230168 6.82989106 7.19622241 9.78121808 7 14 C6.01 14.495 6.01 14.495 5 15 C4.67 14.34 4.34 13.68 4 13 C3.29875 13.33 2.5975 13.66 1.875 14 C-1.382056 15.13288904 -3.57697562 15.43698184 -7 15 C-9.375 13.5 -9.375 13.5 -11 11 C-11.58428517 8.0368395 -11.39344818 6.09840439 -11 3 C-8.22492943 -0.18619213 -3.9573164 -1.9786582 0 0 Z " fill="#18509C" transform="translate(316,217)"/>
<path d="M0 0 C0.99 0 1.98 0 3 0 C3.33 0.99 3.66 1.98 4 3 C6.01508358 3.73323796 6.01508358 3.73323796 8 4 C8 6.31 8 8.62 8 11 C7.34 11 6.68 11 6 11 C6 9.02 6 7.04 6 5 C5.01 5 4.02 5 3 5 C3 6.98 3 8.96 3 11 C1.37509046 11.02698189 -0.24994633 11.04638757 -1.875 11.0625 C-2.77992188 11.07410156 -3.68484375 11.08570313 -4.6171875 11.09765625 C-7 11 -7 11 -9 10 C-11.3400417 10.28241883 -13.67504723 10.61250787 -16 11 C-16 10.34 -16 9.68 -16 9 C-15.34 8.67 -14.68 8.34 -14 8 C-14.66 7.67 -15.32 7.34 -16 7 C-15.67 5.68 -15.34 4.36 -15 3 C-10.05 3 -5.1 3 0 3 C0 2.01 0 1.02 0 0 Z " fill="#C9E4F9" transform="translate(315,300)"/>
<path d="M0 0 C2.89407804 1.26651732 5.7447393 2.7447393 8 5 C8.07179964 6.51928038 8.08392007 8.04167482 8.0625 9.5625 C8.05347656 10.38878906 8.04445313 11.21507812 8.03515625 12.06640625 C8.02355469 12.70449219 8.01195312 13.34257812 8 14 C6.35 14 4.7 14 3 14 C3 13.01 3 12.02 3 11 C-0.96 11 -4.92 11 -9 11 C-9 9.35 -9 7.7 -9 6 C-7.5459375 5.5978125 -7.5459375 5.5978125 -6.0625 5.1875 C-4.5465625 4.5996875 -4.5465625 4.5996875 -3 4 C-2.67 3.01 -2.34 2.02 -2 1 C-5.96 2.98 -5.96 2.98 -10 5 C-10.33 4.01 -10.66 3.02 -11 2 C-7.32307542 -0.35323173 -4.29485546 -0.43676496 0 0 Z " fill="#034AA9" transform="translate(333,255)"/>
<path d="M0 0 C2.77042109 2.77042109 2.39796106 4.76533805 2.625 8.625 C2.69976562 9.81351563 2.77453125 11.00203125 2.8515625 12.2265625 C2.92503906 13.59941406 2.92503906 13.59941406 3 15 C4.65 15.33 6.3 15.66 8 16 C8 17.98 8 19.96 8 22 C0.72727273 22.48484848 0.72727273 22.48484848 -2.25 20.5 C-4.69466761 17.00761771 -4.43798423 13.84227203 -4.25 9.75 C-4.23195313 9.00492188 -4.21390625 8.25984375 -4.1953125 7.4921875 C-4.14835649 5.66090299 -4.07661652 3.83028351 -4 2 C-3.01 2 -2.02 2 -1 2 C-0.67 1.34 -0.34 0.68 0 0 Z " fill="#0348A8" transform="translate(354,210)"/>
<path d="M0 0 C0.99 0 1.98 0 3 0 C3 0.66 3 1.32 3 2 C3.66 2.66 4.32 3.32 5 4 C0.545 4.495 0.545 4.495 -4 5 C-4 6.65 -4 8.3 -4 10 C-0.04 10 3.92 10 8 10 C8 10.99 8 11.98 8 13 C9.65 13 11.3 13 13 13 C13 11.35 13 9.7 13 8 C13.33 8 13.66 8 14 8 C14 9.98 14 11.96 14 14 C8.06 14 2.12 14 -4 14 C-3.01 15.98 -2.02 17.96 -1 20 C1.58414426 20.96906827 1.58414426 20.96906827 4 21 C4 21.33 4 21.66 4 22 C0.6875 22.25 0.6875 22.25 -3 22 C-4.9375 20.3125 -4.9375 20.3125 -6 18 C-6.1875 15.25 -6.1875 15.25 -6 13 C-5.34 13 -4.68 13 -4 13 C-4 12.34 -4 11.68 -4 11 C-5.32 11 -6.64 11 -8 11 C-8.66 11.99 -9.32 12.98 -10 14 C-9.9129995 12.37399059 -9.8048219 10.74910322 -9.6875 9.125 C-9.62949219 8.22007812 -9.57148438 7.31515625 -9.51171875 6.3828125 C-9 4 -9 4 -6 2 C-4.68 2 -3.36 2 -2 2 C-1.34 1.34 -0.68 0.68 0 0 Z " fill="#0B4BA0" transform="translate(328,256)"/>
<path d="M0 0 C5.35402981 3.06568428 10.62709 6.94376999 12.625 12.9375 C11.635 13.9275 10.645 14.9175 9.625 15.9375 C9.30789062 15.41800781 8.99078125 14.89851563 8.6640625 14.36328125 C4.03209391 7.44091935 -1.59279131 4.53156956 -9.375 1.9375 C-12.24015081 1.67283064 -15.10475948 1.49353846 -17.9765625 1.31640625 C-18.76804688 1.19136719 -19.55953125 1.06632813 -20.375 0.9375 C-20.705 0.2775 -21.035 -0.3825 -21.375 -1.0625 C-14.45959991 -3.36763336 -6.60682963 -3.09536565 0 0 Z " fill="#BB3A42" transform="translate(203.375,185.0625)"/>
<path d="M0 0 C0.99 0 1.98 0 3 0 C3.33 0.66 3.66 1.32 4 2 C6.3140622 2.73075648 8.64828869 3.40138258 11 4 C11 6.64 11 9.28 11 12 C9.25021843 12.16894443 7.50016388 12.33506309 5.75 12.5 C4.77546875 12.5928125 3.8009375 12.685625 2.796875 12.78125 C0.53697847 12.95800168 -1.73320193 13 -4 13 C-4 11.35 -4 9.7 -4 8 C-2.68 8.33 -1.36 8.66 0 9 C0 6.03 0 3.06 0 0 Z " fill="#ECFBFE" transform="translate(244,300)"/>
<path d="M0 0 C3.0358355 0.86969665 4.98330947 2.41690322 7.1953125 4.62890625 C6.29039062 4.57669922 6.29039062 4.57669922 5.3671875 4.5234375 C4.16835937 4.48283203 4.16835937 4.48283203 2.9453125 4.44140625 C1.76195312 4.38919922 1.76195312 4.38919922 0.5546875 4.3359375 C-2.54151436 4.72039965 -3.70062484 5.30336331 -5.8046875 7.62890625 C-6.4207075 10.2876718 -6.81365206 12.62735463 -7.0546875 15.31640625 C-7.13203125 16.01830078 -7.209375 16.72019531 -7.2890625 17.44335938 C-7.47701799 19.17020043 -7.64301227 20.89940678 -7.8046875 22.62890625 C-8.4646875 22.62890625 -9.1246875 22.62890625 -9.8046875 22.62890625 C-11.02866463 18.95697487 -11.06579988 15.51807066 -11.1171875 11.69140625 C-11.14619141 10.97533203 -11.17519531 10.25925781 -11.20507812 9.52148438 C-11.24688044 6.05189203 -11.06589466 4.00431834 -9.0625 1.125 C-5.75930261 -1.06379689 -3.77645593 -0.59201867 0 0 Z " fill="#161616" transform="translate(189.8046875,252.37109375)"/>
<path d="M0 0 C3.0625 1.75 3.0625 1.75 4 3.9375 C4.020625 4.535625 4.04125 5.13375 4.0625 5.75 C2.0625 5.75 0.0625 5.75 -1.9375 5.75 C-2.2675 6.74 -2.5975 7.73 -2.9375 8.75 C-3.2675 7.76 -3.5975 6.77 -3.9375 5.75 C-6.27044775 5.70758277 -8.60452567 5.70907063 -10.9375 5.75 C-11.2675 6.08 -11.5975 6.41 -11.9375 6.75 C-13.93708364 6.79080783 -15.93795254 6.79254356 -17.9375 6.75 C-17.67343684 3.49322102 -17.37003722 2.13010847 -14.875 -0.0625 C-9.74057213 -2.13811978 -5.09937414 -1.90572093 0 0 Z " fill="#134DA1" transform="translate(323.9375,206.25)"/>
<path d="M0 0 C2.97 0.495 2.97 0.495 6 1 C6 7.6 6 14.2 6 21 C4.35 20.67 2.7 20.34 1 20 C1 19.34 1 18.68 1 18 C1.66 18 2.32 18 3 18 C2.484375 17.46375 1.96875 16.9275 1.4375 16.375 C0 14 0 14 0.3125 10.75 C0.539375 9.8425 0.76625 8.935 1 8 C-0.65 8.33 -2.3 8.66 -4 9 C-4 8.34 -4 7.68 -4 7 C-3.01 6.34 -2.02 5.68 -1 5 C-0.27034634 2.43717258 -0.27034634 2.43717258 0 0 Z " fill="#0347A4" transform="translate(284,260)"/>
<path d="M0 0 C1.65 0 3.3 0 5 0 C5 11.22 5 22.44 5 34 C3.68 34 2.36 34 1 34 C0.67829494 24.11650578 0.67829494 24.11650578 2.0625 19.3125 C3.27305676 15.03519945 2.89738326 12.33735241 2 8 C1.34 7.67 0.68 7.34 0 7 C0 4.69 0 2.38 0 0 Z " fill="#0147A9" transform="translate(264,197)"/>
<path d="M0 0 C1.65 0 3.3 0 5 0 C4.01 0.495 4.01 0.495 3 1 C3.33 2.98 3.66 4.96 4 7 C4.99 6.67 5.98 6.34 7 6 C7 6.66 7 7.32 7 8 C6.34 8 5.68 8 5 8 C5 13.61 5 19.22 5 25 C3.35 24.67 1.7 24.34 0 24 C0 16.08 0 8.16 0 0 Z " fill="#0449A6" transform="translate(298,256)"/>
<path d="M0 0 C2.31 0 4.62 0 7 0 C7 3.63 7 7.26 7 11 C6.67 11 6.34 11 6 11 C6 7.7 6 4.4 6 1 C4.35 1 2.7 1 1 1 C1 12.22 1 23.44 1 35 C2.65 35 4.3 35 6 35 C5.96519531 33.77023438 5.93039062 32.54046875 5.89453125 31.2734375 C5.86637955 29.64063873 5.83908087 28.0078251 5.8125 26.375 C5.78736328 25.56675781 5.76222656 24.75851563 5.73632812 23.92578125 C5.67502968 18.89930912 6.0263685 15.27121615 9 11 C12.6875 10.125 12.6875 10.125 16 10 C15.01 10.33 14.02 10.66 13 11 C13.33 11.99 13.66 12.98 14 14 C12.35 14.33 10.7 14.66 9 15 C8.11360611 17.65918166 7.82010975 19.48064641 7.68359375 22.23046875 C7.64169922 23.03291016 7.59980469 23.83535156 7.55664062 24.66210938 C7.51732422 25.49548828 7.47800781 26.32886719 7.4375 27.1875 C7.39431641 28.03248047 7.35113281 28.87746094 7.30664062 29.74804688 C7.20068482 31.83184433 7.0998498 33.91590103 7 36 C4.69 36 2.38 36 0 36 C0 24.12 0 12.24 0 0 Z " fill="#174A8C" transform="translate(367,196)"/>
<path d="M0 0 C0.66 0.33 1.32 0.66 2 1 C2.43518641 6.30927425 2.43518641 6.30927425 2 9 C-0.83653151 11.45321644 -2.25123496 12 -6 12 C-6 12.99 -6 13.98 -6 15 C-11.29284165 15.34707158 -11.29284165 15.34707158 -14 15 C-16 13.1875 -16 13.1875 -17 11 C-17 10.01 -17 9.02 -17 8 C-11.06 8 -5.12 8 1 8 C0.67 5.36 0.34 2.72 0 0 Z " fill="#CCE0F1" transform="translate(341,262)"/>
<path d="M0 0 C0.66 0 1.32 0 2 0 C2 0.99 2 1.98 2 3 C4.06309376 2.88521587 6.12548354 2.75773802 8.1875 2.625 C9.33605469 2.55539063 10.48460937 2.48578125 11.66796875 2.4140625 C14.79959117 2.02490426 17.15285809 1.3190149 20 0 C20 2.31 20 4.62 20 7 C13.73 7 7.46 7 1 7 C0.34 5.02 -0.32 3.04 -1 1 C-0.67 0.67 -0.34 0.34 0 0 Z " fill="#0748A1" transform="translate(280,213)"/>
<path d="M0 0 C0.66 0.66 1.32 1.32 2 2 C2.66 1.34 3.32 0.68 4 0 C5.05619003 4.28297531 5.11702092 8.42985646 5.0625 12.8125 C5.05798828 13.50537109 5.05347656 14.19824219 5.04882812 14.91210938 C5.03713156 16.60811068 5.01919924 18.30406703 5 20 C3.35 20 1.7 20 0 20 C0 13.4 0 6.8 0 0 Z " fill="#024AAC" transform="translate(385,211)"/>
<path d="M0 0 C3.55441088 2.71807891 4.43286041 4.24144926 5.125 8.625 C2.485 8.625 -0.155 8.625 -2.875 8.625 C-3.205 7.635 -3.535 6.645 -3.875 5.625 C-5.525 5.295 -7.175 4.965 -8.875 4.625 C-8.235625 4.356875 -7.59625 4.08875 -6.9375 3.8125 C-4.54368314 2.73832248 -4.54368314 2.73832248 -3.875 -0.375 C-7.505 0.285 -11.135 0.945 -14.875 1.625 C-12.34158017 -3.44183966 -4.31086561 -2.06171833 0 0 Z " fill="#2E60A6" transform="translate(258.875,256.375)"/>
<path d="M0 0 C1.134375 0.020625 2.26875 0.04125 3.4375 0.0625 C2.85371688 4.00303603 1.39319436 6.40237508 -1.5625 9.0625 C-4.63039498 9.65205989 -7.51096662 9.76941893 -10.5625 9.0625 C-11.2225 8.0725 -11.8825 7.0825 -12.5625 6.0625 C-10.2525 6.0625 -7.9425 6.0625 -5.5625 6.0625 C-5.418125 5.258125 -5.27375 4.45375 -5.125 3.625 C-4.26443625 -0.29534596 -4.23242358 0.07425305 0 0 Z " fill="#0B4AA0" transform="translate(260.5625,271.9375)"/>
<path d="M0 0 C2.475 0.495 2.475 0.495 5 1 C5 1.99 5 2.98 5 4 C6.4540625 3.7215625 6.4540625 3.7215625 7.9375 3.4375 C9.4534375 3.2209375 9.4534375 3.2209375 11 3 C12 4 12 4 12.0625 7.5625 C12.041875 8.696875 12.02125 9.83125 12 11 C11.34 11 10.68 11 10 11 C10 9.68 10 8.36 10 7 C9.01 7.99 8.02 8.98 7 10 C7.66 10.33 8.32 10.66 9 11 C7.35 11.33 5.7 11.66 4 12 C1.32072659 7.98108988 1.84398752 5.75838077 2 1 C1.34 0.67 0.68 0.34 0 0 Z " fill="#CCE6F4" transform="translate(335,300)"/>
<path d="M0 0 C0.90105469 0.00902344 1.80210937 0.01804688 2.73046875 0.02734375 C3.41753906 0.03894531 4.10460937 0.05054688 4.8125 0.0625 C4.8125 0.3925 4.8125 0.7225 4.8125 1.0625 C3.87277344 1.15337891 3.87277344 1.15337891 2.9140625 1.24609375 C2.09679687 1.32988281 1.27953125 1.41367188 0.4375 1.5 C-0.37460938 1.58121094 -1.18671875 1.66242188 -2.0234375 1.74609375 C-4.23022805 1.95340114 -4.23022805 1.95340114 -6.1875 3.0625 C-4.8675 3.7225 -3.5475 4.3825 -2.1875 5.0625 C-2.79078125 5.25585938 -3.3940625 5.44921875 -4.015625 5.6484375 C-5.21445313 6.03902344 -5.21445313 6.03902344 -6.4375 6.4375 C-7.22640625 6.69273437 -8.0153125 6.94796875 -8.828125 7.2109375 C-11.18727558 8.00259044 -11.18727558 8.00259044 -13.28125 9.15625 C-15.94338187 10.42185367 -18.28390484 10.1944816 -21.1875 10.0625 C-15.56479355 3.73695524 -8.58601055 -0.11150663 0 0 Z " fill="#CC5D65" transform="translate(189.1875,181.9375)"/>
<path d="M0 0 C0.05399736 1.45792884 0.09279177 2.91642712 0.125 4.375 C0.14820313 5.18710937 0.17140625 5.99921875 0.1953125 6.8359375 C0 9 0 9 -2 11 C-4.625 11.125 -4.625 11.125 -7 11 C-7 9.68 -7 8.36 -7 7 C-7.33 6.67 -7.66 6.34 -8 6 C-8.04063832 4.33382885 -8.042721 2.66611905 -8 1 C-5.29120665 -0.35439668 -2.99066732 -0.06501451 0 0 Z " fill="#688EBC" transform="translate(265,303)"/>
<path d="M0 0 C0.66 0 1.32 0 2 0 C2 4.62 2 9.24 2 14 C7.445 13.505 7.445 13.505 13 13 C13.66 8.71 14.32 4.42 15 0 C15.33 0 15.66 0 16 0 C16 4.95 16 9.9 16 15 C10.72 15 5.44 15 0 15 C0 10.05 0 5.1 0 0 Z " fill="#CBE4FA" transform="translate(247,196)"/>
<path d="M0 0 C1.32 0 2.64 0 4 0 C4.33 0.66 4.66 1.32 5 2 C7.71535907 2.43202867 7.71535907 2.43202867 10.875 2.5625 C14.20115284 2.75886324 16.83126825 2.94375608 20 4 C20 4.66 20 5.32 20 6 C14.06 6 8.12 6 2 6 C1.34 4.02 0.68 2.04 0 0 Z " fill="#BE343B" transform="translate(186,232)"/>
<path d="M0 0 C0.99 0 1.98 0 3 0 C3.67154933 1.28913487 4.33708859 2.58140204 5 3.875 C5.37125 4.59429687 5.7425 5.31359375 6.125 6.0546875 C7 8 7 8 7 10 C3.7 9.67 0.4 9.34 -3 9 C-2.5020163 5.26512223 -2.12508244 3.18762365 0 0 Z " fill="#C43F46" transform="translate(182,222)"/>
<path d="M0 0 C0.8971875 0.309375 0.8971875 0.309375 1.8125 0.625 C1.07 1.2025 0.3275 1.78 -0.4375 2.375 C-4.76788786 5.91804461 -7.17699852 8.39769616 -9.1875 13.625 C-10.8125 15.4375 -10.8125 15.4375 -12.1875 16.625 C-13.5075 15.965 -14.8275 15.305 -16.1875 14.625 C-15.5275 14.295 -14.8675 13.965 -14.1875 13.625 C-13.21402259 11.84029141 -12.24071422 10.05548944 -11.26953125 8.26953125 C-9.90274576 6.19221467 -8.45089976 5.56157921 -6.1875 4.625 C-5.8575 3.635 -5.5275 2.645 -5.1875 1.625 C-2.1875 -0.375 -2.1875 -0.375 0 0 Z " fill="#383838" transform="translate(206.1875,279.375)"/>
<path d="M0 0 C1 3.875 1 3.875 1 5 C-3.455 5.495 -3.455 5.495 -8 6 C-7.67 8.64 -7.34 11.28 -7 14 C-8.66611905 14.042721 -10.33382885 14.04063832 -12 14 C-13 13 -13 13 -13.0625 10.4375 C-13.041875 9.633125 -13.02125 8.82875 -13 8 C-12.67 8.99 -12.34 9.98 -12 11 C-11.34 10.67 -10.68 10.34 -10 10 C-10 9.01 -10 8.02 -10 7 C-10.66 7 -11.32 7 -12 7 C-12 6.34 -12 5.68 -12 5 C-10.75264433 4.3490741 -9.50198168 3.70448331 -8.25 3.0625 C-7.55390625 2.70285156 -6.8578125 2.34320313 -6.140625 1.97265625 C-4.09775567 1.04441818 -2.18884624 0.46833422 0 0 Z " fill="#0C4DA6" transform="translate(320,215)"/>
<path d="M0 0 C1.32 0.33 2.64 0.66 4 1 C4.66 4.3 5.32 7.6 6 11 C5.34 11 4.68 11 4 11 C4 10.34 4 9.68 4 9 C2.35 9 0.7 9 -1 9 C-1 9.66 -1 10.32 -1 11 C-1.66 11 -2.32 11 -3 11 C-2.69078116 9.54096742 -2.37751201 8.08279278 -2.0625 6.625 C-1.88847656 5.81289063 -1.71445312 5.00078125 -1.53515625 4.1640625 C-1 2 -1 2 0 0 Z " fill="#4271AC" transform="translate(365,300)"/>
<path d="M0 0 C0.66 0 1.32 0 2 0 C2 3.63 2 7.26 2 11 C0.00045254 11.04254356 -2.00041636 11.04080783 -4 11 C-5 10 -5 10 -5.0625 6.9375 C-5.041875 5.968125 -5.02125 4.99875 -5 4 C-4.0409375 3.8453125 -4.0409375 3.8453125 -3.0625 3.6875 C-2.381875 3.460625 -1.70125 3.23375 -1 3 C-0.67 2.01 -0.34 1.02 0 0 Z " fill="#527AA8" transform="translate(388,300)"/>
<path d="M0 0 C5.15171623 -0.09038099 9.91913204 0.15318867 15 1 C14.401875 1.268125 13.80375 1.53625 13.1875 1.8125 C10.95616388 2.85257915 10.95616388 2.85257915 9.625 4.625 C8 6 8 6 4.9375 6.375 C3.968125 6.25125 2.99875 6.1275 2 6 C0 3 0 3 0 0 Z " fill="#EAF5FC" transform="translate(283,221)"/>
<path d="M0 0 C0.33 0 0.66 0 1 0 C0.67 6.6 0.34 13.2 0 20 C-0.99 20 -1.98 20 -3 20 C-3 14.72 -3 9.44 -3 4 C-2.01 3.67 -1.02 3.34 0 3 C0 2.01 0 1.02 0 0 Z " fill="#004BB0" transform="translate(372,210)"/>
<path d="M0 0 C-0.3125 2.375 -0.3125 2.375 -1 5 C-4.22791555 7.1519437 -5.28400809 7.20086443 -9 7 C-9.33 5.35 -9.66 3.7 -10 2 C-6.38026598 0.68373308 -3.90432869 0 0 0 Z " fill="#D6E8F7" transform="translate(284,270)"/>
<path d="M0 0 C0.33 0.66 0.66 1.32 1 2 C1.66 2 2.32 2 3 2 C3 6.62 3 11.24 3 16 C2.01 15.67 1.02 15.34 0 15 C-1.37252731 12.25494537 -1.13229255 9.99672588 -1.125 6.9375 C-1.12757813 5.85339844 -1.13015625 4.76929688 -1.1328125 3.65234375 C-1 1 -1 1 0 0 Z " fill="#024AAC" transform="translate(242,261)"/>
<path d="M0 0 C0.5625 1.9375 0.5625 1.9375 1 4 C-0.73956658 5.73956658 -3.1936622 5.37190386 -5.5625 5.5625 C-7.08037109 5.68818359 -7.08037109 5.68818359 -8.62890625 5.81640625 C-9.41136719 5.87699219 -10.19382812 5.93757813 -11 6 C-11.33 4.68 -11.66 3.36 -12 2 C-7.8794254 0.00214565 -4.54805635 -0.17835515 0 0 Z " fill="#DBECF9" transform="translate(283,261)"/>
<path d="M0 0 C-0.75 4.75 -0.75 4.75 -3 7 C-5.5625 7.1875 -5.5625 7.1875 -8 7 C-9 6 -9 6 -9.0625 3.4375 C-9.041875 2.633125 -9.02125 1.82875 -9 1 C-6.04335481 -0.4783226 -3.25770263 -0.06032783 0 0 Z " fill="#E6F6FC" transform="translate(321,220)"/>
<path d="M0 0 C0.66 0 1.32 0 2 0 C2 1.32 2 2.64 2 4 C2.66 4 3.32 4 4 4 C4.66 2.68 5.32 1.36 6 0 C6.99 0.33 7.98 0.66 9 1 C7.515 2.485 7.515 2.485 6 4 C7.39759905 7.54518884 7.39759905 7.54518884 9 11 C8.01 11 7.02 11 6 11 C5.67 9.68 5.34 8.36 5 7 C4.01 7 3.02 7 2 7 C2 8.32 2 9.64 2 11 C1.34 11 0.68 11 0 11 C0 7.37 0 3.74 0 0 Z " fill="#2A5089" transform="translate(279,300)"/>
<path d="M0 0 C1.12148437 -0.01417969 2.24296875 -0.02835938 3.3984375 -0.04296875 C6.57384842 0.18384632 8.76734718 0.83359332 11.625 2.1875 C11.625 2.5175 11.625 2.8475 11.625 3.1875 C5.025 3.1875 -1.575 3.1875 -8.375 3.1875 C-8.705 2.5275 -9.035 1.8675 -9.375 1.1875 C-6.0588381 0.0821127 -3.48963365 0.01996358 0 0 Z " fill="#BB353B" transform="translate(191.375,182.8125)"/>
<path d="M0 0 C2.33294775 -0.04241723 4.66702567 -0.04092937 7 0 C8 1 8 1 8.0625 4.5625 C8.041875 5.696875 8.02125 6.83125 8 8 C7.01 8 6.02 8 5 8 C5 6.02 5 4.04 5 2 C4.34 2 3.68 2 3 2 C3 3.98 3 5.96 3 8 C2.01 8 1.02 8 0 8 C0 5.36 0 2.72 0 0 Z " fill="#4F73A2" transform="translate(373,303)"/>
<path d="M0 0 C0.33 0.66 0.66 1.32 1 2 C1.99 2.33 2.98 2.66 4 3 C2.90716423 4.03295436 1.80029421 5.05107835 0.6875 6.0625 C0.07261719 6.63097656 -0.54226562 7.19945312 -1.17578125 7.78515625 C-1.77777344 8.18605469 -2.37976563 8.58695313 -3 9 C-3.99 8.67 -4.98 8.34 -6 8 C-8.05893621 7.77674186 -10.12233653 7.59294241 -12.1875 7.4375 C-13.27417969 7.35371094 -14.36085937 7.26992187 -15.48046875 7.18359375 C-16.31191406 7.12300781 -17.14335937 7.06242188 -18 7 C-18 6.67 -18 6.34 -18 6 C-17.10796875 5.95101562 -16.2159375 5.90203125 -15.296875 5.8515625 C-13.54117188 5.73941406 -13.54117188 5.73941406 -11.75 5.625 C-10.00976562 5.52058594 -10.00976562 5.52058594 -8.234375 5.4140625 C-5.26521265 5.03395234 -3.43380159 4.70366111 -1 3 C-0.67 2.01 -0.34 1.02 0 0 Z " fill="#C54D52" transform="translate(209,228)"/>
<path d="M0 0 C3.73487777 0.4979837 5.81237635 0.87491756 9 3 C14.90457857 3.79193559 20.35003856 2.64362515 26 1 C25.67 1.99 25.34 2.98 25 4 C19.0856147 6.29333307 13.2664726 7.34116972 7.26953125 4.87890625 C4.8028482 3.65078338 2.38971413 2.37114745 0 1 C0 0.67 0 0.34 0 0 Z " fill="#424242" transform="translate(190,251)"/>
<path d="M0 0 C-1.80952591 1.83635578 -3.62240638 3.66916208 -5.4375 5.5 C-5.95376953 6.02464844 -6.47003906 6.54929688 -7.00195312 7.08984375 C-8.31576787 8.41224552 -9.65593505 9.70835568 -11 11 C-11.33 11 -11.66 11 -12 11 C-12.375 8.875 -12.375 8.875 -12 6 C-8.80261336 1.75711867 -5.54560872 -1.84853624 0 0 Z " fill="#BA3840" transform="translate(174,192)"/>
<path d="M0 0 C1.546875 0.185625 1.546875 0.185625 3.125 0.375 C4.115 2.025 5.105 3.675 6.125 5.375 C2.165 5.375 -1.795 5.375 -5.875 5.375 C-3.40988372 0.44476744 -3.40988372 0.44476744 0 0 Z " fill="#E3F4FC" transform="translate(329.875,260.625)"/>
<path d="M0 0 C2.53409304 1.13393269 4.66202311 2.47315795 7 4 C7 4.99 7 5.98 7 7 C6.34 7 5.68 7 5 7 C4.34 6.01 3.68 5.02 3 4 C-0.08365871 3.7497843 -0.08365871 3.7497843 -3 4 C-2.67 3.01 -2.34 2.02 -2 1 C-5.96 2.98 -5.96 2.98 -10 5 C-10.33 4.01 -10.66 3.02 -11 2 C-7.32307542 -0.35323173 -4.29485546 -0.43676496 0 0 Z " fill="#1C54A2" transform="translate(333,255)"/>
<path d="M0 0 C0.99 0.33 1.98 0.66 3 1 C2.67 1.33 2.34 1.66 2 2 C1.92794489 3.68608966 1.91613932 5.37500659 1.9375 7.0625 C1.95103516 8.44115234 1.95103516 8.44115234 1.96484375 9.84765625 C1.97644531 10.55792969 1.98804688 11.26820313 2 12 C1.21625 11.79375 0.4325 11.5875 -0.375 11.375 C-1.24125 11.25125 -2.1075 11.1275 -3 11 C-3.66 11.66 -4.32 12.32 -5 13 C-5.99 12.67 -6.98 12.34 -8 12 C-4.25 7.125 -4.25 7.125 -2 6 C-1.27306096 4.02111039 -0.60183749 2.02045442 0 0 Z " fill="#CFE1F3" transform="translate(267,268)"/>
<path d="M0 0 C-5.75 3 -5.75 3 -8 3 C-8 3.66 -8 4.32 -8 5 C-7.34 5 -6.68 5 -6 5 C-5.67 6.32 -5.34 7.64 -5 9 C-5.99 9 -6.98 9 -8 9 C-8.33 9.66 -8.66 10.32 -9 11 C-9.66 11 -10.32 11 -11 11 C-11.48785997 3.56013552 -11.48785997 3.56013552 -9.3125 1.0625 C-3.35211268 -1.67605634 -3.35211268 -1.67605634 0 0 Z " fill="#17509D" transform="translate(316,217)"/>
<path d="M0 0 C4.70588235 0.70588235 4.70588235 0.70588235 6 2 C6.04080783 3.99958364 6.04254356 6.00045254 6 8 C3.69 8 1.38 8 -1 8 C-0.125 3.125 -0.125 3.125 1 2 C0.34 1.67 -0.32 1.34 -1 1 C-0.67 0.67 -0.34 0.34 0 0 Z " fill="#3B6197" transform="translate(268,303)"/>
<path d="M0 0 C1.231394 2.46278801 1.07159196 4.2795055 1 7 C3.64 7.99 6.28 8.98 9 10 C9 10.66 9 11.32 9 12 C9.66 12.33 10.32 12.66 11 13 C3.8 13.48 3.8 13.48 0.5 11.5 C-1.70532305 7.82446159 -1.34826821 5.24887214 -1 1 C-0.67 0.67 -0.34 0.34 0 0 Z " fill="#235DAD" transform="translate(269,269)"/>
<path d="M0 0 C-0.99 0.495 -0.99 0.495 -2 1 C-2 1.66 -2 2.32 -2 3 C-0.35 2.67 1.3 2.34 3 2 C2.67 3.32 2.34 4.64 2 6 C2 5.34 2 4.68 2 4 C-2.455 4.495 -2.455 4.495 -7 5 C-7 4.34 -7 3.68 -7 3 C-8.65 3 -10.3 3 -12 3 C-8.40198016 -0.59801984 -4.84291279 -0.09137571 0 0 Z " fill="#0F4FA0" transform="translate(282,266)"/>
<path d="M0 0 C3.0625 0.1875 3.0625 0.1875 5.0625 2.1875 C5.0625 3.1775 5.0625 4.1675 5.0625 5.1875 C1.7625 5.1875 -1.5375 5.1875 -4.9375 5.1875 C-3.69966216 0.23614865 -3.69966216 0.23614865 0 0 Z " fill="#E9F7FB" transform="translate(287.9375,210.8125)"/>
<path d="M0 0 C1.67542976 0.28604898 3.34385343 0.61781233 5 1 C5 3.31 5 5.62 5 8 C3.02 8 1.04 8 -1 8 C-1.33 6.68 -1.66 5.36 -2 4 C-1.01 3.67 -0.02 3.34 1 3 C0.34 2.34 -0.32 1.68 -1 1 C-0.67 0.67 -0.34 0.34 0 0 Z " fill="#42699D" transform="translate(394,303)"/>
<path d="M0 0 C1.67542976 0.28604898 3.34385343 0.61781233 5 1 C5 3.31 5 5.62 5 8 C3.02 8 1.04 8 -1 8 C-1.33 6.68 -1.66 5.36 -2 4 C-1.01 3.67 -0.02 3.34 1 3 C0.34 2.34 -0.32 1.68 -1 1 C-0.67 0.67 -0.34 0.34 0 0 Z " fill="#315A94" transform="translate(327,303)"/>
<path d="M0 0 C0.33 0 0.66 0 1 0 C1.33 3.63 1.66 7.26 2 11 C4.64 10.34 7.28 9.68 10 9 C8.515 11.475 8.515 11.475 7 14 C4.11050316 13.68762196 2.41366901 13.35661121 0.1875 11.4375 C-1.57502695 7.81968153 -1.26259725 5.00460801 -1 1 C-0.67 0.67 -0.34 0.34 0 0 Z " fill="#C1DBF2" transform="translate(247,263)"/>
<path d="M0 0 C0.33 0 0.66 0 1 0 C1 5.94 1 11.88 1 18 C-0.32 18 -1.64 18 -3 18 C-3 16.02 -3 14.04 -3 12 C-2.01 11.67 -1.02 11.34 0 11 C-0.185625 9.741875 -0.37125 8.48375 -0.5625 7.1875 C-1.00732761 4.17255732 -0.99843846 2.99531539 0 0 Z " fill="#0247AB" transform="translate(326,213)"/>
<path d="M0 0 C2.875 -0.125 2.875 -0.125 6 0 C8 2 8 2 8.125 5.125 C8.08375 6.07375 8.0425 7.0225 8 8 C7.01 8 6.02 8 5 8 C5 6.02 5 4.04 5 2 C4.01 2 3.02 2 2 2 C2 3.98 2 5.96 2 8 C1.34 8 0.68 8 0 8 C0 5.36 0 2.72 0 0 Z " fill="#3B6295" transform="translate(349,303)"/>
<path d="M0 0 C0.66 0 1.32 0 2 0 C2.33 0.99 2.66 1.98 3 3 C5.01508358 3.73323796 5.01508358 3.73323796 7 4 C7 6.31 7 8.62 7 11 C6.34 11 5.68 11 5 11 C5 9.02 5 7.04 5 5 C4.01 5 3.02 5 2 5 C2 6.98 2 8.96 2 11 C1.34 11 0.68 11 0 11 C0 7.37 0 3.74 0 0 Z " fill="#27538C" transform="translate(316,300)"/>
<path d="M0 0 C1.2065625 0.0309375 1.2065625 0.0309375 2.4375 0.0625 C3.4375 3.0625 3.4375 3.0625 2.4375 6.0625 C0.1275 6.0625 -2.1825 6.0625 -4.5625 6.0625 C-3.48963568 0.08511307 -3.48963568 0.08511307 0 0 Z " fill="#154C9B" transform="translate(310.5625,254.9375)"/>
<path d="M0 0 C-0.99 0.33 -1.98 0.66 -3 1 C-2.67 1.66 -2.34 2.32 -2 3 C-3.78810766 3.69670416 -5.58062052 4.38211189 -7.375 5.0625 C-8.37273437 5.44535156 -9.37046875 5.82820312 -10.3984375 6.22265625 C-13 7 -13 7 -15 6 C-10.84715145 1.35858103 -6.43741727 -2.47592972 0 0 Z " fill="#B6373C" transform="translate(124,184)"/>
<path d="M0 0 C0.79539539 2.72706989 1.1543515 5.37118364 1.4375 8.1875 C1.623125 9.445625 1.80875 10.70375 2 12 C2.66 12.33 3.32 12.66 4 13 C4 14.32 4 15.64 4 17 C5.98 17.33 7.96 17.66 10 18 C9.67 18.66 9.34 19.32 9 20 C5.2447503 19.14653416 3.30325659 18.31921746 0.625 15.5 C-1.50093552 10.92106195 -1.54595432 6.97623937 -1 2 C-0.67 1.34 -0.34 0.68 0 0 Z " fill="#2659A2" transform="translate(318,262)"/>
<path d="M0 0 C0.99 0.33 1.98 0.66 3 1 C2.51814387 5.7221901 0.30336567 8.70054372 -2.5625 12.3125 C-2.98724609 12.86228516 -3.41199219 13.41207031 -3.84960938 13.97851562 C-4.89181259 15.3251827 -5.94483843 16.66346201 -7 18 C-7 14.61635256 -6.32843855 13.53805179 -4.625 10.6875 C-2.61398591 7.20098266 -1.09848822 3.89464007 0 0 Z " fill="#323232" transform="translate(218,272)"/>
<path d="M0 0 C2.375 -0.125 2.375 -0.125 5 0 C7.35953094 2.35953094 7.49141413 3.77895617 8 7 C6.02 7 4.04 7 2 7 C0.5393715 4.35261084 0 3.10551666 0 0 Z " fill="#134FA1" transform="translate(256,258)"/>
<path d="M0 0 C-0.99 0.33 -1.98 0.66 -3 1 C-2.67 1.99 -2.34 2.98 -2 4 C-3.65 4.33 -5.3 4.66 -7 5 C-8.00259507 8.00778521 -8.30314642 10.53820647 -8.5625 13.6875 C-8.64628906 14.68136719 -8.73007812 15.67523438 -8.81640625 16.69921875 C-8.87699219 17.45847656 -8.93757813 18.21773437 -9 19 C-9.33 19 -9.66 19 -10 19 C-10.56477413 6.07294779 -10.56477413 6.07294779 -7 1 C-4.53721199 -0.231394 -2.7204945 -0.07159196 0 0 Z " fill="#0E4793" transform="translate(383,206)"/>
<path d="M0 0 C0.99 0.33 1.98 0.66 3 1 C3 5.62 3 10.24 3 15 C2.34 15 1.68 15 1 15 C-0.09506492 11.71480525 -0.09960608 9.26336585 -0.0625 5.8125 C-0.05347656 4.72582031 -0.04445312 3.63914062 -0.03515625 2.51953125 C-0.02355469 1.68808594 -0.01195312 0.85664063 0 0 Z " fill="#040404" transform="translate(179,260)"/>
<path d="M0 0 C0.33 0 0.66 0 1 0 C1 1.98 1 3.96 1 6 C-0.65 6 -2.3 6 -4 6 C-4 10.62 -4 15.24 -4 20 C-4.33 20 -4.66 20 -5 20 C-5.33 15.71 -5.66 11.42 -6 7 C-6.66 7 -7.32 7 -8 7 C-8 5.35 -8 3.7 -8 2 C-7.01 2 -6.02 2 -5 2 C-5 2.99 -5 3.98 -5 5 C-3.35 5 -1.7 5 0 5 C0 3.35 0 1.7 0 0 Z " fill="#4679BE" transform="translate(361,205)"/>
<path d="M0 0 C4.13621084 3.3810038 7.81316569 6.66590534 11 11 C7.73045798 10.43628586 6.17424117 9.50037734 4 7 C3.67 7.66 3.34 8.32 3 9 C0.9375 6.75 0.9375 6.75 -1 4 C-0.62109375 1.828125 -0.62109375 1.828125 0 0 Z " fill="#BD464A" transform="translate(110,231)"/>
<path d="M0 0 C10.15317287 -0.63019694 10.15317287 -0.63019694 13.6875 2 C14.120625 2.66 14.55375 3.32 15 4 C14.01 4 13.02 4 12 4 C11.67 4.66 11.34 5.32 11 6 C9.72791378 5.37755401 8.45738118 4.75193233 7.1875 4.125 C6.47980469 3.77695313 5.77210938 3.42890625 5.04296875 3.0703125 C3 2 3 2 0 0 Z " fill="#C34D52" transform="translate(194,186)"/>
<path d="M0 0 C1.67542976 0.28604898 3.34385343 0.61781233 5 1 C5 3.31 5 5.62 5 8 C3.02 8 1.04 8 -1 8 C-1.33 6.68 -1.66 5.36 -2 4 C1 5 1 5 3 6 C3 4.68 3 3.36 3 2 C1.68 1.67 0.36 1.34 -1 1 C-0.67 0.67 -0.34 0.34 0 0 Z " fill="#385F95" transform="translate(250,303)"/>
<path d="M0 0 C2.31 0 4.62 0 7 0 C5.74426756 3.8718417 4.63191921 6.02838671 1 8 C-1.75 8.1875 -1.75 8.1875 -4 8 C-1.78065836 4.67098753 -0.65316671 4.24976756 3 3 C2.01 2.67 1.02 2.34 0 2 C0 1.34 0 0.68 0 0 Z " fill="#3661A2" transform="translate(335,274)"/>
<path d="M0 0 C0.33 0.66 0.66 1.32 1 2 C0.67 2.66 0.34 3.32 0 4 C-0.66 4 -1.32 4 -2 4 C-1.67 5.32 -1.34 6.64 -1 8 C-5.75 11 -5.75 11 -8 11 C-8 10.34 -8 9.68 -8 9 C-8.66 8.34 -9.32 7.68 -10 7 C-8.02 6.67 -6.04 6.34 -4 6 C-3.67 5.01 -3.34 4.02 -3 3 C-2.34 3 -1.68 3 -1 3 C-0.67 2.01 -0.34 1.02 0 0 Z " fill="#C8555D" transform="translate(164,309)"/>
<path d="M0 0 C1.65 0.33 3.3 0.66 5 1 C5 3.31 5 5.62 5 8 C4.34 8 3.68 8 3 8 C3 6.68 3 5.36 3 4 C2.01 4.99 1.02 5.98 0 7 C0.66 7.33 1.32 7.66 2 8 C0.68 7.67 -0.64 7.34 -2 7 C-2 6.01 -2 5.02 -2 4 C-1.34 3.67 -0.68 3.34 0 3 C0 2.01 0 1.02 0 0 Z " fill="#35578E" transform="translate(342,303)"/>
<path d="M0 0 C-1.78174788 2.30142435 -3.16304165 3.80034391 -6.046875 4.48828125 C-8.0246611 4.72323102 -10.01271872 4.86751458 -12 5 C-11.67 3.68 -11.34 2.36 -11 1 C-3.57142857 -1.42857143 -3.57142857 -1.42857143 0 0 Z " fill="#0446A4" transform="translate(339,277)"/>
<path d="M0 0 C1.65 0.33 3.3 0.66 5 1 C5.33 2.32 5.66 3.64 6 5 C4 5 2 5 0 5 C-0.33 5.99 -0.66 6.98 -1 8 C-1.33 7.01 -1.66 6.02 -2 5 C-4.97 4.505 -4.97 4.505 -8 4 C-8 3.67 -8 3.34 -8 3 C-6.865625 2.87625 -5.73125 2.7525 -4.5625 2.625 C-3.386875 2.41875 -2.21125 2.2125 -1 2 C-0.67 1.34 -0.34 0.68 0 0 Z " fill="#1E5AA8" transform="translate(322,207)"/>
<path d="M0 0 C1.65 0 3.3 0 5 0 C4 3 4 3 2 4 C1.67 4.99 1.34 5.98 1 7 C1.99 7 2.98 7 4 7 C4.33 8.65 4.66 10.3 5 12 C4.01 11.67 3.02 11.34 2 11 C1.67 10.34 1.34 9.68 1 9 C0.67 10.32 0.34 11.64 0 13 C0 8.71 0 4.42 0 0 Z " fill="#0247A2" transform="translate(368,197)"/>
<path d="M0 0 C4.62 0 9.24 0 14 0 C13.01 0.495 13.01 0.495 12 1 C12 1.66 12 2.32 12 3 C8.7 3 5.4 3 2 3 C2 2.34 2 1.68 2 1 C1.34 0.67 0.68 0.34 0 0 Z " fill="#B93238" transform="translate(144,317)"/>
<path d="M0 0 C1.32 0.99 2.64 1.98 4 3 C3.67 4.65 3.34 6.3 3 8 C2.01 8.33 1.02 8.66 0 9 C-0.99 7.68 -1.98 6.36 -3 5 C-1.125 1.125 -1.125 1.125 0 0 Z " fill="#D9EDFA" transform="translate(287,301)"/>
<path d="M0 0 C1.8871875 0.061875 1.8871875 0.061875 3.8125 0.125 C3.8125 0.455 3.8125 0.785 3.8125 1.125 C1.5025 1.125 -0.8075 1.125 -3.1875 1.125 C-3.5896875 1.99125 -3.5896875 1.99125 -4 2.875 C-5.20706868 5.16207749 -6.63850356 7.05967141 -8.1875 9.125 C-8.88330267 10.44336295 -9.55974433 11.77291086 -10.1875 13.125 C-10.51271241 8.4636221 -10.00701666 5.88435554 -7.1875 2.125 C-4.09861478 0.06574319 -3.47814073 -0.1140374 0 0 Z " fill="#FCDAD9" transform="translate(113.1875,276.875)"/>
<path d="M0 0 C0.66 0 1.32 0 2 0 C2.39012425 1.76756294 2.7616098 3.53924783 3.125 5.3125 C3.33382812 6.29863281 3.54265625 7.28476563 3.7578125 8.30078125 C4 11 4 11 2 14 C0.09391902 10.78817851 -0.22266247 8.46117397 -0.125 4.75 C-0.09792969 3.41195312 -0.09792969 3.41195312 -0.0703125 2.046875 C-0.04710938 1.37140625 -0.02390625 0.6959375 0 0 Z " fill="#BE343B" transform="translate(98,208)"/>
<path d="M0 0 C1.65 0.33 3.3 0.66 5 1 C4.34 1.66 3.68 2.32 3 3 C3.66 3.33 4.32 3.66 5 4 C4.67 5.32 4.34 6.64 4 8 C2.35 8 0.7 8 -1 8 C-1 7.34 -1 6.68 -1 6 C-0.34 5.67 0.32 5.34 1 5 C0.34 4.67 -0.32 4.34 -1 4 C-0.67 2.68 -0.34 1.36 0 0 Z " fill="#416496" transform="translate(300,303)"/>
<path d="M0 0 C-0.53109375 0.24234375 -1.0621875 0.4846875 -1.609375 0.734375 C-5.79141217 2.71855322 -8.81452669 4.56949028 -12 8 C-12.66 8 -13.32 8 -14 8 C-14 8.66 -14 9.32 -14 10 C-14.66 9.67 -15.32 9.34 -16 9 C-12.43315259 3.79834753 -6.71320314 -2.42754221 0 0 Z " fill="#F7D0D1" transform="translate(122,188)"/>
<path d="M0 0 C0.33 0.99 0.66 1.98 1 3 C3.00016466 4.20882096 3.00016466 4.20882096 5 5 C0.6835078 5.76173392 -2.74433453 6.16063604 -7 5 C-7 3.68 -7 2.36 -7 1 C-4.61435923 1.57584432 -2.33317216 2.22227595 0 3 C0 2.01 0 1.02 0 0 Z " fill="#A6CBEE" transform="translate(298,304)"/>
<path d="M0 0 C0.598125 0.185625 1.19625 0.37125 1.8125 0.5625 C4.16408762 1.22093687 4.16408762 1.22093687 7 0 C7 0.99 7 1.98 7 3 C5.35 3 3.7 3 2 3 C2 3.66 2 4.32 2 5 C3.65 5 5.3 5 7 5 C6.34 5.66 5.68 6.32 5 7 C2.375 6.625 2.375 6.625 0 6 C0 4.02 0 2.04 0 0 Z " fill="#345C8F" transform="translate(307,304)"/>
<path d="M0 0 C2.97 0.33 5.94 0.66 9 1 C8.34 2.32 7.68 3.64 7 5 C6.34 5 5.68 5 5 5 C4.67 5.66 4.34 6.32 4 7 C2.68 6.34 1.36 5.68 0 5 C0.66 4.67 1.32 4.34 2 4 C2 3.34 2 2.68 2 2 C1.34 1.34 0.68 0.68 0 0 Z " fill="#1C56AB" transform="translate(378,205)"/>
<path d="M0 0 C0.99 0 1.98 0 3 0 C3 3.63 3 7.26 3 11 C2.01 11 1.02 11 0 11 C0 7.37 0 3.74 0 0 Z " fill="#6C88B1" transform="translate(401,300)"/>
<path d="M0 0 C2.5625 1.125 2.5625 1.125 5 3 C5.8125 5.6875 5.8125 5.6875 6 8 C4.25 7.875 4.25 7.875 2 7 C-0.25 3.9375 -0.25 3.9375 -2 1 C-1.34 0.67 -0.68 0.34 0 0 Z " fill="#BA3C42" transform="translate(128,302)"/>
<path d="M0 0 C0.66 0 1.32 0 2 0 C2 1.98 2 3.96 2 6 C4.64 6.33 7.28 6.66 10 7 C9.34 8.32 8.68 9.64 8 11 C7.01 11 6.02 11 5 11 C5 10.34 5 9.68 5 9 C4.360625 8.855625 3.72125 8.71125 3.0625 8.5625 C1 8 1 8 0 7 C-0.04092937 4.66702567 -0.04241723 2.33294775 0 0 Z " fill="#0B4899" transform="translate(273,270)"/>
<path d="M0 0 C-0.75 6.75 -0.75 6.75 -3 9 C-3.99 9 -4.98 9 -6 9 C-5.63668534 5.73016809 -4.2451062 0 0 0 Z " fill="#C0383F" transform="translate(216,221)"/>
<path d="M0 0 C0.598125 0.61875 1.19625 1.2375 1.8125 1.875 C4.00811144 4.13676954 4.00811144 4.13676954 7 6 C5.35 6.33 3.7 6.66 2 7 C1.67 8.32 1.34 9.64 1 11 C0.67 11 0.34 11 0 11 C0 7.37 0 3.74 0 0 Z " fill="#B9D7F0" transform="translate(390,300)"/>
<path d="M0 0 C0.66 0 1.32 0 2 0 C2.05399736 1.45792884 2.09279177 2.91642712 2.125 4.375 C2.14820313 5.18710937 2.17140625 5.99921875 2.1953125 6.8359375 C2 9 2 9 0 11 C-2.625 11.125 -2.625 11.125 -5 11 C-5 10.34 -5 9.68 -5 9 C-3.35 9 -1.7 9 0 9 C-0.185625 7.700625 -0.37125 6.40125 -0.5625 5.0625 C-0.87890625 2.84765625 -0.87890625 2.84765625 -1 1 C-0.67 0.67 -0.34 0.34 0 0 Z " fill="#2B588F" transform="translate(263,303)"/>
<path d="M0 0 C0.66 0 1.32 0 2 0 C2.02688151 1.64574566 2.04634123 3.29161413 2.0625 4.9375 C2.07410156 5.85402344 2.08570313 6.77054687 2.09765625 7.71484375 C2 10 2 10 1 11 C-0.66617115 11.04063832 -2.33388095 11.042721 -4 11 C-3.67 10.01 -3.34 9.02 -3 8 C-2.01 8.33 -1.02 8.66 0 9 C0 6.03 0 3.06 0 0 Z " fill="#2D5994" transform="translate(244,300)"/>
<path d="M0 0 C3.69287153 0.90270193 5.55368289 1.40491051 7.875 4.5 C9 7 9 7 9 9 C4.71930097 7.41455592 2.70478088 4.5312417 0 1 C0 0.67 0 0.34 0 0 Z " fill="#B9353E" transform="translate(137,261)"/>
<path d="M0 0 C0.99 0 1.98 0 3 0 C4.80411967 2.75924185 5.0127245 3.88972103 4.625 7.25 C4.41875 8.1575 4.2125 9.065 4 10 C1.16625119 6.79663178 0.4794463 4.21912747 0 0 Z " fill="#B8383F" transform="translate(149,230)"/>
<path d="M0 0 C0.33 0 0.66 0 1 0 C1 1.98 1 3.96 1 6 C-6.75 6.125 -6.75 6.125 -9 5 C-9 4.34 -9 3.68 -9 3 C-7.8553125 3.0309375 -7.8553125 3.0309375 -6.6875 3.0625 C-3.89814214 3.12942841 -3.89814214 3.12942841 -1 2 C-0.67 1.34 -0.34 0.68 0 0 Z " fill="#3266AF" transform="translate(361,226)"/>
<path d="M0 0 C7.75 0.875 7.75 0.875 10 2 C10 2.66 10 3.32 10 4 C2.25 4.125 2.25 4.125 0 3 C0 2.01 0 1.02 0 0 Z " fill="#BB353B" transform="translate(106,297)"/>
<path d="M0 0 C0.33 0 0.66 0 1 0 C1.33 4.29 1.66 8.58 2 13 C3.32 13.33 4.64 13.66 6 14 C6 15.65 6 17.3 6 19 C5.67 18.01 5.34 17.02 5 16 C3.35 15.67 1.7 15.34 0 15 C0 10.05 0 5.1 0 0 Z " fill="#0E4798" transform="translate(355,212)"/>
<path d="M0 0 C1.98 0 3.96 0 6 0 C6.33 1.32 6.66 2.64 7 4 C4.36 4 1.72 4 -1 4 C-0.67 2.68 -0.34 1.36 0 0 Z " fill="#EBFAFD" transform="translate(314,211)"/>
<path d="M0 0 C2.31 0.66 4.62 1.32 7 2 C6.1028125 2.2784375 6.1028125 2.2784375 5.1875 2.5625 C1.90018201 4.72273753 1.35145313 7.35107655 0 11 C-0.66 10.67 -1.32 10.34 -2 10 C-1.67 9.67 -1.34 9.34 -1 9 C-0.76807135 7.48530552 -0.58784762 5.96245438 -0.4375 4.4375 C-0.35371094 3.61121094 -0.26992188 2.78492188 -0.18359375 1.93359375 C-0.12300781 1.29550781 -0.06242187 0.65742188 0 0 Z " fill="#BDDDF5" transform="translate(265,303)"/>
<path d="M0 0 C0.598125 0.639375 1.19625 1.27875 1.8125 1.9375 C3.90810337 4.20310389 3.90810337 4.20310389 7 5 C7 6.32 7 7.64 7 9 C4 8 4 8 2 6 C1.34 6.99 0.68 7.98 0 9 C0 6.03 0 3.06 0 0 Z " fill="#A8C8E9" transform="translate(246,300)"/>
<path d="M0 0 C1.051875 -0.01417969 2.10375 -0.02835938 3.1875 -0.04296875 C6 0.1875 6 0.1875 9 2.1875 C8.67 2.8475 8.34 3.5075 8 4.1875 C7.34 3.8575 6.68 3.5275 6 3.1875 C1.44440592 1.66896864 -2.94101317 1.36390527 -7.5 3.1875 C-7.995 3.5175 -8.49 3.8475 -9 4.1875 C-9 3.1975 -9 2.2075 -9 1.1875 C-5.79226388 0.11825463 -3.37015182 0.02065044 0 0 Z " fill="#D4E9F7" transform="translate(317,203.8125)"/>
<path d="M0 0 C0.99 0 1.98 0 3 0 C3 4.95 3 9.9 3 15 C2.67 15 2.34 15 2 15 C1.8046875 12.98177083 1.609375 10.96354167 1.4140625 8.9453125 C1.13625251 6.77331755 1.13625251 6.77331755 -1 5 C-0.625 2.375 -0.625 2.375 0 0 Z " fill="#014DAC" transform="translate(265,198)"/>
<path d="M0 0 C0 0.99 0 1.98 0 3 C-3 2 -3 2 -5 1 C-5 2.65 -5 4.3 -5 6 C-5.99 6.495 -5.99 6.495 -7 7 C-7 6.01 -7 5.02 -7 4 C-8.32 3.34 -9.64 2.68 -11 2 C-7.17010894 0.19769832 -4.21878192 -0.19622241 0 0 Z " fill="#AFCFE9" transform="translate(312,303)"/>
<path d="M0 0 C2.97 0 5.94 0 9 0 C9.33 1.32 9.66 2.64 10 4 C7.24921116 4.91692961 5.64051087 5.10886083 2.8125 5.0625 C0.9253125 5.0315625 0.9253125 5.0315625 -1 5 C-1 4.67 -1 4.34 -1 4 C1.31 4 3.62 4 6 4 C6 3.34 6 2.68 6 2 C3.03 1.505 3.03 1.505 0 1 C0 0.67 0 0.34 0 0 Z " fill="#D1696D" transform="translate(110,297)"/>
<path d="M0 0 C-0.33 1.32 -0.66 2.64 -1 4 C-1.37125 3.505 -1.7425 3.01 -2.125 2.5 C-4.8015868 0.35873056 -6.66061623 0.65214752 -10 1 C-10.99 1.66 -11.98 2.32 -13 3 C-13 2.01 -13 1.02 -13 0 C-11.58800422 -0.39222105 -10.17007236 -0.76311059 -8.75 -1.125 C-7.96109375 -1.33382813 -7.1721875 -1.54265625 -6.359375 -1.7578125 C-3.5796929 -2.04314411 -2.34112451 -1.44977894 0 0 Z " fill="#2B60AB" transform="translate(337,261)"/>
<path d="M0 0 C0.33 0 0.66 0 1 0 C1.38971999 2.10149011 1.76131477 4.2063482 2.125 6.3125 C2.33382812 7.48425781 2.54265625 8.65601563 2.7578125 9.86328125 C3 13 3 13 1 16 C0.67 15.34 0.34 14.68 0 14 C-0.99 14.495 -0.99 14.495 -2 15 C-1.34 10.05 -0.68 5.1 0 0 Z " fill="#C85D62" transform="translate(215,208)"/>
<path d="M0 0 C4.75 0.75 4.75 0.75 7 3 C7 4.32 7 5.64 7 7 C3.17053157 5.54744301 1.87949705 3.57104439 0 0 Z " fill="#B9373F" transform="translate(117,274)"/>
<path d="M0 0 C1.32 0.66 2.64 1.32 4 2 C4 2.66 4 3.32 4 4 C3.34 4 2.68 4 2 4 C1.67 5.32 1.34 6.64 1 8 C0.67 6.68 0.34 5.36 0 4 C-1.65 4 -3.3 4 -5 4 C-3.35 2.68 -1.7 1.36 0 0 Z " fill="#1F5BAE" transform="translate(283,274)"/>
<path d="M0 0 C1.32 0.33 2.64 0.66 4 1 C4.33 2.32 4.66 3.64 5 5 C4.34 5 3.68 5 3 5 C3 4.34 3 3.68 3 3 C2.34 3 1.68 3 1 3 C1 3.66 1 4.32 1 5 C0.34 5 -0.32 5 -1 5 C-1 5.99 -1 6.98 -1 8 C-1.66 8 -2.32 8 -3 8 C-1.125 2.25 -1.125 2.25 0 0 Z " fill="#C1515A" transform="translate(163,234)"/>
<path d="M0 0 C0.33 1.32 0.66 2.64 1 4 C-3.29 4.66 -7.58 5.32 -12 6 C-12.33 4.68 -12.66 3.36 -13 2 C-12.01 2.495 -12.01 2.495 -11 3 C-5.63036713 3.58184185 -5.63036713 3.58184185 -1 1.5 C-0.67 1.005 -0.34 0.51 0 0 Z " fill="#D7EDF8" transform="translate(283,278)"/>
<path d="M0 0 C2 3 2 3 2.4375 5.125 C2.7159375 6.053125 2.7159375 6.053125 3 7 C3.99 7.33 4.98 7.66 6 8 C4.02 8.33 2.04 8.66 0 9 C-1.125 3.375 -1.125 3.375 0 0 Z " fill="#C2434A" transform="translate(154,235)"/>
<path d="M0 0 C2.31 0 4.62 0 7 0 C6.4409112 3.24271506 5.5867822 4.93057424 3 7 C2.34 7 1.68 7 1 7 C1.33 5.68 1.66 4.36 2 3 C2.66 3.33 3.32 3.66 4 4 C4 3.34 4 2.68 4 2 C2.68 2 1.36 2 0 2 C0 1.34 0 0.68 0 0 Z " fill="#2F60A5" transform="translate(293,224)"/>
<path d="M0 0 C0.33 0 0.66 0 1 0 C1 4.29 1 8.58 1 13 C0.34 12.67 -0.32 12.34 -1 12 C-1 10.35 -1 8.7 -1 7 C-1.99 6.67 -2.98 6.34 -4 6 C-3.525625 5.566875 -3.05125 5.13375 -2.5625 4.6875 C-0.76313043 2.97690387 -0.76313043 2.97690387 0 0 Z " fill="#08469C" transform="translate(322,212)"/>
<path d="M0 0 C0.66 0 1.32 0 2 0 C0.125 4.75 0.125 4.75 -1 7 C-1.22622081 8.70363822 -1.40888473 10.41328701 -1.5625 12.125 C-1.64628906 13.03507813 -1.73007812 13.94515625 -1.81640625 14.8828125 C-1.87699219 15.58148438 -1.93757813 16.28015625 -2 17 C-2.33 17 -2.66 17 -3 17 C-3.08160748 15.10489301 -3.13946459 13.20875496 -3.1875 11.3125 C-3.22230469 10.25675781 -3.25710938 9.20101562 -3.29296875 8.11328125 C-2.96409165 4.61841396 -2.12293836 2.77061447 0 0 Z " fill="#E6F9FE" transform="translate(277,207)"/>
<path d="M0 0 C1.65 0 3.3 0 5 0 C4.51917969 0.37769531 4.03835938 0.75539062 3.54296875 1.14453125 C1.46337042 3.64531405 1.50158423 5.47306804 1.3125 8.6875 C1.24675781 9.68136719 1.18101562 10.67523438 1.11328125 11.69921875 C1.07589844 12.45847656 1.03851563 13.21773437 1 14 C1.99 14.33 2.98 14.66 4 15 C2.68 15 1.36 15 0 15 C0 10.05 0 5.1 0 0 Z " fill="#E6F9FD" transform="translate(357,211)"/>
<path d="M0 0 C0.66 0 1.32 0 2 0 C3.1577506 3.47325181 3.06866652 6.36067448 3 10 C2.01 9.67 1.02 9.34 0 9 C-1.125 2.25 -1.125 2.25 0 0 Z " fill="#294B83" transform="translate(335,301)"/>
<path d="M0 0 C1.98 0 3.96 0 6 0 C5.67 1.65 5.34 3.3 5 5 C4.01 5 3.02 5 2 5 C1.34 4.34 0.68 3.68 0 3 C0 2.01 0 1.02 0 0 Z " fill="#0F0F0F" transform="translate(188,294)"/>
<path d="M0 0 C0 0.33 0 0.66 0 1 C-1.7015625 1.4640625 -1.7015625 1.4640625 -3.4375 1.9375 C-6.78775099 2.62924531 -6.78775099 2.62924531 -8 4 C-9.99958364 4.04080783 -12.00045254 4.04254356 -14 4 C-14 3.34 -14 2.68 -14 2 C-9.07262981 0.02905192 -5.21979128 -0.1799928 0 0 Z " fill="#114893" transform="translate(283,259)"/>
<path d="M0 0 C2.0625 0.4375 2.0625 0.4375 4 1 C4.33 2.32 4.66 3.64 5 5 C4.4225 4.79375 3.845 4.5875 3.25 4.375 C0.48032433 3.91338739 -0.64561267 4.57055055 -3 6 C-1.125 1.125 -1.125 1.125 0 0 Z " fill="#FBDADA" transform="translate(182,231)"/>
<path d="M0 0 C0.33 0 0.66 0 1 0 C1.12375 1.0725 1.2475 2.145 1.375 3.25 C1.90748507 6.44491044 2.51842728 8.23439759 4 11 C4 11.99 4 12.98 4 14 C2 12.625 2 12.625 0 10 C-0.35791096 6.6419531 -0.23115823 3.36463643 0 0 Z " fill="#406FAF" transform="translate(275,214)"/>
<path d="M0 0 C2.31 0 4.62 0 7 0 C7.33 1.32 7.66 2.64 8 4 C7.34 4 6.68 4 6 4 C6 3.34 6 2.68 6 2 C4.35 2 2.7 2 1 2 C1 2.66 1 3.32 1 4 C0.34 4 -0.32 4 -1 4 C-0.67 2.68 -0.34 1.36 0 0 Z " fill="#265289" transform="translate(363,307)"/>
<path d="M0 0 C1.65 1.32 3.3 2.64 5 4 C4.67 5.32 4.34 6.64 4 8 C2.35 7.01 0.7 6.02 -1 5 C-0.34 4.67 0.32 4.34 1 4 C0.67 2.68 0.34 1.36 0 0 Z " fill="#BF464E" transform="translate(145,266)"/>
<path d="M0 0 C1.4606285 2.64738916 2 3.89448334 2 7 C0.33388095 7.042721 -1.33382885 7.04063832 -3 7 C-4 6 -4 6 -4.0625 3.4375 C-4.041875 2.633125 -4.02125 1.82875 -4 1 C-3.67 1.99 -3.34 2.98 -3 4 C-2.01 4 -1.02 4 0 4 C0 2.68 0 1.36 0 0 Z " fill="#1257B0" transform="translate(311,222)"/>
<path d="M0 0 C1.98 0.99 3.96 1.98 6 3 C6 4.32 6 5.64 6 7 C4.02 6.34 2.04 5.68 0 5 C0 3.35 0 1.7 0 0 Z " fill="#BE444A" transform="translate(140,313)"/>
<path d="M0 0 C-0.66 0.66 -1.32 1.32 -2 2 C-2.99 2 -3.98 2 -5 2 C-4.67 3.32 -4.34 4.64 -4 6 C-4.99 6 -5.98 6 -7 6 C-7 4.02 -7 2.04 -7 0 C-4.3333581 -1.33332095 -2.83319697 -0.67102033 0 0 Z " fill="#B8D7F3" transform="translate(330,305)"/>
<path d="M0 0 C0.99 0.33 1.98 0.66 3 1 C3 3.31 3 5.62 3 8 C2.01 7.67 1.02 7.34 0 7 C0 4.69 0 2.38 0 0 Z " fill="#C23236" transform="translate(125,283)"/>
<path d="M0 0 C1.485 0.99 1.485 0.99 3 2 C3 2.99 3 3.98 3 5 C2.34 5 1.68 5 1 5 C1 7.64 1 10.28 1 13 C0.67 13 0.34 13 0 13 C-0.19551338 11.39679026 -0.38111983 9.79237014 -0.5625 8.1875 C-0.71912109 6.84751953 -0.71912109 6.84751953 -0.87890625 5.48046875 C-1 3 -1 3 0 0 Z " fill="#BF484F" transform="translate(124,278)"/>
<path d="M0 0 C0.66 0.33 1.32 0.66 2 1 C2.04254356 2.99954746 2.04080783 5.00041636 2 7 C1 8 1 8 -1.5625 8.0625 C-2.366875 8.041875 -3.17125 8.02125 -4 8 C-3.525625 7.608125 -3.05125 7.21625 -2.5625 6.8125 C-0.64820367 4.59191626 -0.38733012 2.86624291 0 0 Z " fill="#034DB3" transform="translate(287,260)"/>
<path d="M0 0 C0 0.33 0 0.66 0 1 C-1.3303125 1.433125 -1.3303125 1.433125 -2.6875 1.875 C-5.50382424 2.83148748 -8.25083156 3.86798946 -11 5 C-10.6875 3.0625 -10.6875 3.0625 -10 1 C-6.52674819 -0.1577506 -3.63932552 -0.06866652 0 0 Z " fill="#2D5FA3" transform="translate(333,255)"/>
<path d="M0 0 C1.670625 0.061875 1.670625 0.061875 3.375 0.125 C3.045 1.775 2.715 3.425 2.375 5.125 C1.715 4.465 1.055 3.805 0.375 3.125 C-1.61321313 2.72735737 -3.61444339 2.38724651 -5.625 2.125 C-3.625 0.125 -3.625 0.125 0 0 Z " fill="#C5DFF3" transform="translate(317.625,219.875)"/>
<path d="M0 0 C0.99 0.33 1.98 0.66 3 1 C3 1.99 3 2.98 3 4 C2.34 4.66 1.68 5.32 1 6 C-0.32 6 -1.64 6 -3 6 C-2.625 3.5625 -2.625 3.5625 -2 1 C-1.34 0.67 -0.68 0.34 0 0 Z " fill="#285EAA" transform="translate(309,207)"/>
<path d="M0 0 C1.65 1.65 3.3 3.3 5 5 C4.01 6.485 4.01 6.485 3 8 C2.34 8 1.68 8 1 8 C0.34 6.68 -0.32 5.36 -1 4 C-0.34 4 0.32 4 1 4 C0.67 2.68 0.34 1.36 0 0 Z " fill="#C8595C" transform="translate(133,306)"/>
<path d="M0 0 C1.65 0 3.3 0 5 0 C5 0.99 5 1.98 5 3 C5.66 3.33 6.32 3.66 7 4 C5.02 4 3.04 4 1 4 C0.67 2.68 0.34 1.36 0 0 Z " fill="#5B80AF" transform="translate(325,307)"/>
<path d="M0 0 C1.98 0.495 1.98 0.495 4 1 C4 2.32 4 3.64 4 5 C2.35 5 0.7 5 -1 5 C-0.67 3.35 -0.34 1.7 0 0 Z " fill="#5A83B4" transform="translate(268,306)"/>
<path d="M0 0 C0.33 0.66 0.66 1.32 1 2 C1.99 1.67 2.98 1.34 4 1 C2.84826645 3.46800047 1.95216435 5.04783565 0 7 C-1.32 6.34 -2.64 5.68 -4 5 C-3.34 4.67 -2.68 4.34 -2 4 C-0.86649466 1.98330173 -0.86649466 1.98330173 0 0 Z " fill="#515151" transform="translate(194,289)"/>
<path d="M0 0 C-0.99 1.32 -1.98 2.64 -3 4 C-4.65 3.67 -6.3 3.34 -8 3 C-8 2.34 -8 1.68 -8 1 C-2.25 -1.125 -2.25 -1.125 0 0 Z " fill="#CFE5F5" transform="translate(257,273)"/>
<path d="M0 0 C-1.485 1.485 -1.485 1.485 -3 3 C-1.68 3.33 -0.36 3.66 1 4 C-0.65 4 -2.3 4 -4 4 C-4 3.34 -4 2.68 -4 2 C-5.65 2 -7.3 2 -9 2 C-5.945634 -1.054366 -3.9532319 -1.22686507 0 0 Z " fill="#3264A6" transform="translate(279,267)"/>
<path d="M0 0 C6.15234375 -0.09765625 6.15234375 -0.09765625 8 0 C9 1 9 1 9.0625 3.5625 C9.041875 4.366875 9.02125 5.17125 9 6 C8.34 6 7.68 6 7 6 C6.6596875 5.0409375 6.6596875 5.0409375 6.3125 4.0625 C5.14749104 1.72806339 5.14749104 1.72806339 2.375 1.25 C1.59125 1.1675 0.8075 1.085 0 1 C0 0.67 0 0.34 0 0 Z " fill="#386BB5" transform="translate(286,210)"/>
<path d="M0 0 C1.98 0 3.96 0 6 0 C7.125 4.75 7.125 4.75 6 7 C4.02 4.69 2.04 2.38 0 0 Z " fill="#C34D52" transform="translate(150,198)"/>
<path d="M0 0 C0.33 0 0.66 0 1 0 C1 2.97 1 5.94 1 9 C-0.65 9.33 -2.3 9.66 -4 10 C-3.67 8.68 -3.34 7.36 -3 6 C-2.01 6 -1.02 6 0 6 C0 4.02 0 2.04 0 0 Z " fill="#D4E6F1" transform="translate(243,300)"/>
<path d="M0 0 C0.66 0.99 1.32 1.98 2 3 C0.625 5 0.625 5 -1 7 C-1.66 7 -2.32 7 -3 7 C-2.25 2.25 -2.25 2.25 0 0 Z " fill="#242424" transform="translate(198,284)"/>
<path d="M0 0 C0.33 0.66 0.66 1.32 1 2 C-1.2747813 3.38111722 -2.50171361 4.05694702 -5.1875 3.75 C-7 3 -7 3 -8 1 C-5.36 0.67 -2.72 0.34 0 0 Z " fill="#014CB2" transform="translate(256,277)"/>
<path d="M0 0 C3.625 -0.1875 3.625 -0.1875 7 0 C6.67 0.99 6.34 1.98 6 3 C6 2.34 6 1.68 6 1 C5.236875 1.515625 4.47375 2.03125 3.6875 2.5625 C2.800625 3.036875 1.91375 3.51125 1 4 C0.01 3.67 -0.98 3.34 -2 3 C-1.34 2.01 -0.68 1.02 0 0 Z " fill="#3E6EB0" transform="translate(257,272)"/>
<path d="M0 0 C2.475 0.495 2.475 0.495 5 1 C4.67 2.65 4.34 4.3 4 6 C2.68 5.67 1.36 5.34 0 5 C0 3.35 0 1.7 0 0 Z " fill="#C62930" transform="translate(168,242)"/>
<path d="M0 0 C0.99 0 1.98 0 3 0 C3 0.66 3 1.32 3 2 C2.34 2 1.68 2 1 2 C0.34 3.65 -0.32 5.3 -1 7 C-1.66 7 -2.32 7 -3 7 C-1.125 1.125 -1.125 1.125 0 0 Z " fill="#BD4651" transform="translate(182,222)"/>
<path d="M0 0 C1.32 0 2.64 0 4 0 C4 1.65 4 3.3 4 5 C2.68 5 1.36 5 0 5 C0 3.35 0 1.7 0 0 Z " fill="#144798" transform="translate(357,205)"/>
<path d="M0 0 C1.32 0.33 2.64 0.66 4 1 C4 1.66 4 2.32 4 3 C2.02 3.66 0.04 4.32 -2 5 C-1.34 3.35 -0.68 1.7 0 0 Z " fill="#BD3F47" transform="translate(178,185)"/>
<path d="M0 0 C0.99 0 1.98 0 3 0 C3 0.99 3 1.98 3 3 C2.071875 3.4021875 2.071875 3.4021875 1.125 3.8125 C-1.2995233 4.95556848 -1.2995233 4.95556848 -3 8 C-2.25 2.25 -2.25 2.25 0 0 Z " fill="#0244A1" transform="translate(321,262)"/>
<path d="M0 0 C-0.33 0.66 -0.66 1.32 -1 2 C-3.64860427 2.59355614 -6.29197322 2.74209269 -9 3 C-6.38220849 -0.01046024 -3.86655673 -1.93327837 0 0 Z " fill="#313131" transform="translate(216,253)"/>
<path d="M0 0 C0 1.32 0 2.64 0 4 C-1.98 4.33 -3.96 4.66 -6 5 C-6 3 -6 3 -4.6875 1.375 C-3 0 -3 0 0 0 Z " fill="#C52D33" transform="translate(185,226)"/>
<path d="M0 0 C0.99 0.33 1.98 0.66 3 1 C3 2.98 3 4.96 3 7 C2.01 7.495 2.01 7.495 1 8 C-0.125 4.25 -0.125 4.25 1 2 C0.34 1.67 -0.32 1.34 -1 1 C-0.67 0.67 -0.34 0.34 0 0 Z " fill="#2D69B4" transform="translate(320,224)"/>
<path d="M0 0 C0.598125 0.350625 1.19625 0.70125 1.8125 1.0625 C0.4375 2.5625 0.4375 2.5625 -1.1875 4.0625 C-1.8475 4.0625 -2.5075 4.0625 -3.1875 4.0625 C-3.1875 3.4025 -3.1875 2.7425 -3.1875 2.0625 C-3.8475 1.4025 -4.5075 0.7425 -5.1875 0.0625 C-2.1875 -0.9375 -2.1875 -0.9375 0 0 Z " fill="#C04D51" transform="translate(159.1875,315.9375)"/>
<path d="M0 0 C1.98 1.65 3.96 3.3 6 5 C2.25 6.125 2.25 6.125 0 5 C0 3.35 0 1.7 0 0 Z " fill="#BF4A50" transform="translate(155,276)"/>
<path d="M0 0 C-2.35968744 2.09749995 -3.54616994 2.96905704 -6.75 3.1875 C-7.86375 3.0946875 -7.86375 3.0946875 -9 3 C-7 0 -7 0 -5.0625 -0.75 C-3 -1 -3 -1 0 0 Z " fill="#21589E" transform="translate(340,279)"/>
<path d="M0 0 C1.2410689 2.4821378 1 4.24140025 1 7 C1.29044914 8.34332728 1.60955794 9.68225804 2 11 C1.34 11 0.68 11 0 11 C-1.62651522 7.74696956 -1.11453156 4.60774398 -1 1 C-0.67 0.67 -0.34 0.34 0 0 Z " fill="#1D519C" transform="translate(269,269)"/>
<path d="M0 0 C0.90105469 0.19464844 1.80210937 0.38929688 2.73046875 0.58984375 C3.41753906 0.74582031 4.10460937 0.90179688 4.8125 1.0625 C4.8125 1.3925 4.8125 1.7225 4.8125 2.0625 C3.02116022 2.11641993 1.22936101 2.15525571 -0.5625 2.1875 C-1.56023437 2.21070313 -2.55796875 2.23390625 -3.5859375 2.2578125 C-6.1875 2.0625 -6.1875 2.0625 -8.1875 0.0625 C-4.80475734 -1.06508089 -3.41971777 -0.75500262 0 0 Z " fill="#25559A" transform="translate(289.1875,229.9375)"/>
<path d="M0 0 C0.33 0.66 0.66 1.32 1 2 C1.99 2.33 2.98 2.66 4 3 C3.01 3.99 2.02 4.98 1 6 C0.01 5.34 -0.98 4.68 -2 4 C-1.34 2.68 -0.68 1.36 0 0 Z " fill="#C14C51" transform="translate(178,229)"/>
<path d="M0 0 C0.66 0 1.32 0 2 0 C2 0.66 2 1.32 2 2 C1.34 2 0.68 2 0 2 C-0.103125 2.639375 -0.20625 3.27875 -0.3125 3.9375 C-0.539375 4.618125 -0.76625 5.29875 -1 6 C-1.99 6.33 -2.98 6.66 -4 7 C-2.92598892 4.08482708 -2.22189824 2.22189824 0 0 Z " fill="#2C60A7" transform="translate(280,207)"/>
</svg>
